<svg width="16" height="16" viewBox="0 0 16 16" fill="none" xmlns="http://www.w3.org/2000/svg">
<path d="M3.99961 12.8L4.46561 12.8L4.46561 11.284C4.46507 10.7635 4.59358 10.2511 4.83965 9.79243C5.08572 9.33381 5.44165 8.94335 5.87561 8.656L6.86561 8L5.87561 7.344C5.44165 7.05665 5.08572 6.66619 4.83965 6.20757C4.59358 5.74894 4.46507 5.23647 4.46561 4.716L4.46561 3.2L3.99961 3.2C3.84048 3.2 3.68787 3.13679 3.57534 3.02426C3.46282 2.91174 3.39961 2.75913 3.39961 2.6C3.39961 2.44087 3.46282 2.28826 3.57535 2.17574C3.68787 2.06321 3.84048 2 3.99961 2L11.9996 2C12.1587 2 12.3114 2.06321 12.4239 2.17574C12.5364 2.28826 12.5996 2.44087 12.5996 2.6C12.5996 2.75913 12.5364 2.91174 12.4239 3.02426C12.3114 3.13679 12.1587 3.2 11.9996 3.2L11.4376 3.2L11.4376 4.716C11.4385 5.23653 11.3101 5.74914 11.064 6.20783C10.8179 6.66651 10.4618 7.05691 10.0276 7.344L9.03761 8L10.0276 8.656C10.46 8.94424 10.8141 9.33514 11.0585 9.79375C11.3028 10.2524 11.4296 10.7644 11.4276 11.284L11.4276 12.8L11.9996 12.8C12.1587 12.8 12.3114 12.8632 12.4239 12.9757C12.5364 13.0883 12.5996 13.2409 12.5996 13.4C12.5996 13.5591 12.5364 13.7117 12.4239 13.8243C12.3114 13.9368 12.1587 14 11.9996 14L3.99961 14C3.84048 14 3.68787 13.9368 3.57534 13.8243C3.46282 13.7117 3.39961 13.5591 3.39961 13.4C3.39961 13.2409 3.46282 13.0883 3.57534 12.9757C3.68787 12.8632 3.84048 12.8 3.99961 12.8ZM10.2376 11.284C10.2379 10.9617 10.1585 10.6444 10.0063 10.3604C9.85417 10.0763 9.63405 9.8343 9.36561 9.656L7.95161 8.72L6.53961 9.656C6.27093 9.8342 6.05051 10.0761 5.89801 10.3602C5.74552 10.6442 5.66568 10.9616 5.66561 11.284L5.66561 12.8L10.2376 12.8L10.2376 11.284Z" fill="#2B1A2E"/>
</svg>
