<svg width="16" height="16" viewBox="0 0 16 16" fill="none" xmlns="http://www.w3.org/2000/svg">
<path fill-rule="evenodd" clip-rule="evenodd" d="M9.24935 3V4.66666C9.24935 5.35703 9.80899 5.91665 10.4993 5.91665H12.166V8.83332C12.1646 9.98334 11.2327 10.9153 10.0827 10.9167H7.99935C6.84933 10.9153 5.9174 9.98334 5.91602 8.83332V5.08333C5.9174 3.93332 6.84933 3.00139 7.99935 3H9.24935ZM10.084 4.66679C10.084 4.89691 10.2705 5.08345 10.5006 5.08345H12.1531C12.1225 4.81291 12.0037 4.55992 11.8152 4.36345L10.8636 3.38055C10.6554 3.16953 10.3792 3.03904 10.084 3.01221V4.66679ZM5.08398 8.83356C5.08582 10.4436 6.39056 11.7484 8.00063 11.7502H10.084C10.1673 11.7502 10.2473 11.7448 10.3306 11.7377C10.002 12.5027 9.24989 12.999 8.41729 13.0002H5.9173C4.76728 12.9988 3.83535 12.0669 3.83398 10.9169V6.75023C3.83523 5.91763 4.33148 5.16555 5.09648 4.83691C5.08939 4.91691 5.08398 5.00023 5.08398 5.08357V8.83356Z" fill="#2B1A2E"/>
</svg>
