<svg width="16" height="16" viewBox="0 0 16 16" fill="none" xmlns="http://www.w3.org/2000/svg">
<path fill-rule="evenodd" clip-rule="evenodd" d="M8 2C4.68629 2 2 4.68629 2 8C2 11.3137 4.68629 14 8 14C11.3137 14 14 11.3137 14 8C14 4.68629 11.3137 2 8 2ZM7.95345 10.2099L11.3496 6.85655L11.3491 6.85855C11.4351 6.76404 11.4817 6.64016 11.4793 6.51237C11.4768 6.38458 11.4255 6.26257 11.3359 6.17143C11.2463 6.08028 11.1252 6.02692 10.9975 6.0223C10.8698 6.01768 10.7451 6.06216 10.6492 6.14659L7.24652 9.49641L5.35022 7.64301C5.25541 7.55019 5.12762 7.49883 4.99495 7.50024C4.86228 7.50165 4.73561 7.5557 4.64279 7.65051C4.54998 7.74532 4.49862 7.87312 4.50003 8.00579C4.50143 8.13847 4.55549 8.26515 4.65029 8.35797L6.54209 10.2099C6.7295 10.3966 6.98325 10.5014 7.24777 10.5014C7.5123 10.5014 7.76604 10.3966 7.95345 10.2099Z" fill="#2B1A2E"/>
</svg>
