<svg width="16" height="16" viewBox="0 0 16 16" fill="none" xmlns="http://www.w3.org/2000/svg">
<path fill-rule="evenodd" clip-rule="evenodd" d="M5.42857 14C4.28572 14 4 13.5 4 12.697V5.00008H12V12.697C12 13.5 11.7143 14 10.5714 14H5.42857ZM6.99906 7.44572C6.99906 7.26162 6.84982 7.11238 6.66573 7.11238C6.48163 7.11238 6.33239 7.26162 6.33239 7.44572V11.898C6.33239 12.0821 6.48163 12.2313 6.66573 12.2313C6.84982 12.2313 6.99906 12.0821 6.99906 11.898V7.44572ZM9.00036 7.44572C9.00036 7.26162 9.1496 7.11238 9.3337 7.11238C9.51779 7.11238 9.66703 7.26162 9.66703 7.44572V11.898C9.66703 12.0821 9.51779 12.2313 9.3337 12.2313C9.1496 12.2313 9.00036 12.0821 9.00036 11.898V7.44572Z" fill="#2B1A2E"/>
<path d="M10.5 2.69707H12.5V4.00008H3.50036V2.69707H5.5L6.21429 2.04557H9.78572L10.5 2.69707Z" fill="#2B1A2E"/>
</svg>
