<svg width="16" height="16" viewBox="0 0 16 16" fill="none" xmlns="http://www.w3.org/2000/svg">
<path fill-rule="evenodd" clip-rule="evenodd" d="M8 14C11.3137 14 14 11.3137 14 8C14 4.68629 11.3137 2 8 2C4.68629 2 2 4.68629 2 8C2 11.3137 4.68629 14 8 14ZM10.1463 8.14753C10.3415 7.95221 10.6581 7.95212 10.8534 8.14732C11.0488 8.34253 11.0489 8.65911 10.8537 8.85443L8.35561 11.3539C8.16043 11.5492 7.8439 11.5494 7.64857 11.3542L5.14662 8.8547C4.95126 8.65954 4.95111 8.34295 5.14627 8.1476C5.34144 7.95224 5.65802 7.95209 5.85338 8.14725L7.50195 9.79422V5.00049C7.50195 4.72435 7.72581 4.50049 8.00195 4.50049C8.2781 4.50049 8.50195 4.72435 8.50195 5.00049V9.79288L10.1463 8.14753Z" fill="#2B1A2E"/>
</svg>
