<svg width="16" height="16" viewBox="0 0 16 16" fill="none" xmlns="http://www.w3.org/2000/svg">
<path fill-rule="evenodd" clip-rule="evenodd" d="M2 8C2 4.67273 4.67273 2 8 2C11.3273 2 14 4.67273 14 8C14 11.3273 11.3273 14 8 14C4.67273 14 2 11.3273 2 8ZM9.50073 4.81748C9.50073 5.0427 9.4184 5.23506 9.25294 5.39322C9.0879 5.55195 8.88904 5.63137 8.65639 5.63137C8.42302 5.63137 8.22367 5.55195 8.05675 5.39322C7.89013 5.235 7.80664 5.0427 7.80664 4.81748C7.80664 4.59269 7.89013 4.40002 8.05675 4.23985C8.22336 4.07993 8.42308 4 8.65639 4C8.88898 4 9.0879 4.08012 9.25294 4.23985C9.41852 4.40002 9.50073 4.59275 9.50073 4.81748ZM9.41018 10.2444L9.31531 10.6443C9.0307 10.7601 8.80335 10.8482 8.63406 10.9088C8.46458 10.9696 8.26766 10.9999 8.0433 10.9999C7.69875 10.9999 7.43075 10.9128 7.23961 10.74C7.04847 10.5665 6.95287 10.3466 6.95287 10.0798C6.95287 9.97654 6.95981 9.87032 6.97423 9.7621C6.98877 9.65375 7.0119 9.53172 7.04354 9.39533L7.39923 8.09741C7.43087 7.97313 7.45777 7.85537 7.47931 7.74401C7.50116 7.63334 7.51168 7.53151 7.51168 7.43985C7.51168 7.2741 7.4784 7.15816 7.41213 7.09298C7.34586 7.02798 7.21941 6.99498 7.03167 6.99498C6.93972 6.99498 6.84522 7.01016 6.74889 7.03952C6.65213 7.06901 6.56943 7.09749 6.5 7.12397L6.59511 6.72383C6.82812 6.62602 7.05084 6.54226 7.26389 6.47275C7.47694 6.40305 7.67824 6.36816 7.86865 6.36816C8.21083 6.36816 8.47487 6.45342 8.66029 6.62395C8.84571 6.79459 8.93839 7.01581 8.93839 7.2884C8.93839 7.34481 8.9323 7.44418 8.91922 7.58622C8.90644 7.72857 8.88264 7.85901 8.84796 7.97764L8.49379 9.27036C8.46477 9.37419 8.43866 9.49289 8.41596 9.62646C8.39253 9.75915 8.38134 9.86053 8.38134 9.92854C8.38134 10.1002 8.41846 10.2174 8.49288 10.2797C8.56785 10.342 8.69698 10.373 8.88039 10.373C8.9665 10.373 9.06447 10.3572 9.17334 10.3263C9.2819 10.2954 9.36107 10.2682 9.41018 10.2444Z" fill="#2B1A2E"/>
</svg>
