<svg width="16" height="16" viewBox="0 0 16 16" fill="none" xmlns="http://www.w3.org/2000/svg">
<path fill-rule="evenodd" clip-rule="evenodd" d="M14 8C14 11.3137 11.3137 14 8 14C4.68629 14 2 11.3137 2 8C2 4.68629 4.68629 2 8 2C11.3137 2 14 4.68629 14 8ZM8.12783 5.5C7.52732 5.5 6.77641 5.78295 6.31221 6.15433L5.6875 5.37347C6.31457 4.8718 7.28241 4.49999 8.12783 4.5C8.55469 4.5 9.00982 4.59535 9.36742 4.88349C9.7435 5.18652 9.93735 5.64224 9.93735 6.2004C9.93735 6.5867 9.75369 6.89188 9.55322 7.11461C9.35563 7.33414 9.10688 7.51265 8.89622 7.65307C8.80744 7.71225 8.72896 7.76267 8.65819 7.80813C8.54069 7.88362 8.44445 7.94544 8.35761 8.01105C8.33361 8.02918 8.31487 8.04438 8.30045 8.05677V8.81947H7.30045V7.94627C7.30045 7.73118 7.40092 7.56772 7.48183 7.46755C7.5643 7.36546 7.66569 7.28048 7.75482 7.21314C7.87029 7.12591 8.02279 7.02763 8.16306 6.93723C8.22649 6.89635 8.28773 6.85688 8.34158 6.82098C8.54015 6.68862 8.70063 6.56708 8.80996 6.44561C8.9164 6.32735 8.93735 6.2506 8.93735 6.2004C8.93735 5.88555 8.83793 5.74107 8.73999 5.66216C8.62357 5.56835 8.42394 5.5 8.12783 5.5ZM8.67426 10.3474C8.67426 10.7693 8.33226 11.1113 7.91037 11.1113C7.48849 11.1113 7.14648 10.7693 7.14648 10.3474C7.14648 9.9255 7.48849 9.5835 7.91037 9.5835C8.33226 9.5835 8.67426 9.9255 8.67426 10.3474Z" fill="#2B1A2E"/>
</svg>
