<svg width="16" height="16" viewBox="0 0 16 16" fill="none" xmlns="http://www.w3.org/2000/svg">
<path d="M11.4044 7.10792L3.3362 3.76007C2.9963 3.61901 2.61229 3.68106 2.33407 3.92192C2.05585 4.16282 1.93948 4.53399 2.03042 4.89058L2.74856 7.70683H6.2647C6.42649 7.70683 6.55768 7.838 6.55768 7.99981C6.55768 8.16161 6.42651 8.2928 6.2647 8.2928H2.74856L2.03042 11.109C1.93948 11.4656 2.05583 11.8368 2.33407 12.0777C2.61286 12.319 2.9969 12.3803 3.33622 12.2395L11.4045 8.89171C11.7718 8.73929 12 8.39753 12 7.99981C12 7.6021 11.7718 7.26032 11.4044 7.10792Z" fill="#2B1A2E"/>
</svg>
