<svg width="16" height="16" viewBox="0 0 16 16" fill="none" xmlns="http://www.w3.org/2000/svg">
<path fill-rule="evenodd" clip-rule="evenodd" d="M15.9142 7.75142C14.2717 5.83814 11.2312 3 7.98298 3C5.07183 3 2.32748 5.63027 0.606889 7.27933C0.432485 7.44649 0.2686 7.60356 0.116126 7.74679C-0.0313305 7.8853 -0.0401532 8.12497 0.0999535 8.2717C1.75301 10.0029 4.76632 13 7.98298 13C11.2223 13 14.2555 9.9605 15.9008 8.23526C16.0273 8.10255 16.0339 7.89093 15.9142 7.75142ZM7.98298 10.1432C9.10707 10.1432 10.0183 9.18373 10.0183 8.00021C10.0183 6.81669 9.10707 5.85726 7.98298 5.85726C6.85889 5.85726 5.94763 6.81669 5.94763 8.00021C5.94763 9.18373 6.85889 10.1432 7.98298 10.1432Z" fill="#2B1A2E"/>
</svg>
