<svg width="16" height="16" viewBox="0 0 16 16" fill="none" xmlns="http://www.w3.org/2000/svg">
<path d="M5.6465 5.26379C5.451 5.08458 5.451 4.79492 5.6465 4.61571C5.842 4.4365 6.158 4.4365 6.3535 4.61571L7.5 5.66667V2.45833C7.5 2.20488 7.7235 2 8 2C8.2765 2 8.5 2.20488 8.5 2.45833V5.66667L9.6465 4.61571C9.842 4.4365 10.158 4.4365 10.3535 4.61571C10.549 4.79492 10.549 5.08458 10.3535 5.26379L8.707 6.77308C8.5135 6.95046 8.259 7.03983 8.0045 7.04075L8 7.04167L7.9955 7.04075C7.741 7.03983 7.4865 6.95046 7.293 6.77308L5.6465 5.26379ZM12.5 7.5H11C10.4485 7.5 10 7.91113 10 8.41667C10 8.92221 9.5515 9.33333 9 9.33333H7C6.4485 9.33333 6 8.92221 6 8.41667C6 7.91113 5.5515 7.5 5 7.5H3.5C2.673 7.5 2 8.11692 2 8.875V10.7083C2 11.972 3.1215 13 4.5 13H11.5C12.8785 13 14 11.972 14 10.7083V8.875C14 8.11692 13.327 7.5 12.5 7.5Z" fill="#2B1A2E"/>
</svg>
