<svg width="16" height="16" viewBox="0 0 16 16" fill="none" xmlns="http://www.w3.org/2000/svg">
<path fill-rule="evenodd" clip-rule="evenodd" d="M4.88828 4H11.1106C11.6998 4.00071 12.2646 4.23506 12.6812 4.65167C13.0978 5.06827 13.3322 5.6331 13.3329 6.22227H2.66602C2.66672 5.6331 2.90108 5.06827 3.31768 4.65167C3.73429 4.23506 4.29912 4.00071 4.88828 4ZM3.31768 11.3487C2.90108 10.932 2.66672 10.3672 2.66602 9.77805V7.11133H13.3329V9.77805C13.3322 10.3672 13.0978 10.932 12.6812 11.3487C12.2646 11.7653 11.6998 11.9996 11.1106 12.0003H4.88828C4.29912 11.9996 3.73429 11.7653 3.31768 11.3487ZM5.66483 9.92621C5.73809 9.81658 5.77719 9.68768 5.77719 9.55582C5.77719 9.37901 5.70695 9.20943 5.58192 9.08441C5.4569 8.95938 5.28732 8.88914 5.11051 8.88914C4.97865 8.88914 4.84976 8.92824 4.74012 9.0015C4.63049 9.07475 4.54504 9.17887 4.49458 9.30069C4.44412 9.42251 4.43092 9.55656 4.45664 9.68589C4.48236 9.81521 4.54586 9.934 4.6391 10.0272C4.73233 10.1205 4.85112 10.184 4.98045 10.2097C5.10977 10.2354 5.24382 10.2222 5.36564 10.1718C5.48746 10.1213 5.59158 10.0358 5.66483 9.92621Z" fill="#2B1A2E"/>
</svg>
