<svg width="16" height="16" viewBox="0 0 16 16" fill="none" xmlns="http://www.w3.org/2000/svg">
<path fill-rule="evenodd" clip-rule="evenodd" d="M8 2C4.68629 2 2 4.68629 2 8C2 11.3137 4.68629 14 8 14C11.3137 14 14 11.3137 14 8C14 4.68629 11.3137 2 8 2ZM9.85365 9.8532C10.0492 9.6577 10.0492 9.34169 9.85365 9.14619L8.70715 7.99967L9.85365 6.85315C10.0492 6.65765 10.0492 6.34164 9.85365 6.14614C9.65815 5.95064 9.34215 5.95064 9.14665 6.14614L8.00014 7.29266L6.85363 6.14614C6.65813 5.95064 6.34213 5.95064 6.14663 6.14614C5.95112 6.34164 5.95112 6.65765 6.14663 6.85315L7.29314 7.99967L6.14663 9.14619C5.95112 9.34169 5.95112 9.6577 6.14663 9.8532C6.24413 9.9507 6.37213 9.9997 6.50013 9.9997C6.62813 9.9997 6.75613 9.9507 6.85363 9.8532L8.00014 8.70668L9.14665 9.8532C9.24415 9.9507 9.37215 9.9997 9.50015 9.9997C9.62815 9.9997 9.75615 9.9507 9.85365 9.8532Z" fill="#2B1A2E"/>
</svg>
