<svg width="16" height="16" viewBox="0 0 16 16" fill="none" xmlns="http://www.w3.org/2000/svg">
<path d="M12.7234 10.3973C12.7528 10.4298 12.781 10.461 12.8078 10.4912C12.9417 10.6421 13.0011 10.823 13 11C12.9978 11.3844 12.7103 11.75 12.2835 11.75H3.71653C3.28975 11.75 3.00247 11.3844 3.00002 11C2.9989 10.823 3.05827 10.6423 3.1922 10.4912C3.21899 10.461 3.24722 10.4298 3.27662 10.3973C3.72058 9.90726 4.43037 9.12373 4.43037 6.875C4.43037 5.05391 5.64644 3.59609 7.28616 3.23844V2.75C7.28616 2.33586 7.6058 2 8 2C8.3942 2 8.71384 2.33586 8.71384 2.75V3.23844C10.3536 3.59609 11.5696 5.05391 11.5696 6.875C11.5696 9.12373 12.2794 9.90726 12.7234 10.3973Z" fill="#2B1A2E"/>
<path d="M8.00016 14C8.78855 14 9.42806 13.3285 9.42806 12.5H6.57227C6.57227 13.3285 7.21177 14 8.00016 14Z" fill="#2B1A2E"/>
</svg>
