<svg width="16" height="16" viewBox="0 0 16 16" fill="none" xmlns="http://www.w3.org/2000/svg">
<path fill-rule="evenodd" clip-rule="evenodd" d="M10.4583 4.66667H10.9167C11.469 4.66733 11.9985 4.88703 12.3891 5.27759C12.7796 5.66815 12.9993 6.19767 13 6.75V8H3V6.75C3.00066 6.19767 3.22037 5.66815 3.61092 5.27759C4.00148 4.88703 4.531 4.66733 5.08333 4.66667H5.54167C5.63837 4.19642 5.89424 3.77389 6.26615 3.4703C6.63805 3.1667 7.10325 3.00061 7.58333 3H8.41667C8.89675 3.00061 9.36195 3.1667 9.73385 3.4703C10.1058 3.77389 10.3616 4.19642 10.4583 4.66667ZM6.86471 4.0642C6.65468 4.21337 6.49587 4.42379 6.41 4.66667H9.59C9.50413 4.42379 9.34532 4.21337 9.13529 4.0642C8.92526 3.91503 8.67427 3.8344 8.41667 3.83333H7.58333C7.32572 3.8344 7.07474 3.91503 6.86471 4.0642ZM8.29463 9.54479C8.37277 9.46665 8.41667 9.36067 8.41667 9.25016V8.8335H13V10.9168C12.9993 11.4692 12.7796 11.9987 12.3891 12.3892C11.9985 12.7798 11.469 12.9995 10.9167 13.0002H5.08333C4.531 12.9995 4.00148 12.7798 3.61092 12.3892C3.22037 11.9987 3.00066 11.4692 3 10.9168V8.8335H7.58333V9.25016C7.58333 9.36067 7.62723 9.46665 7.70537 9.54479C7.78351 9.62293 7.88949 9.66683 8 9.66683C8.11051 9.66683 8.21649 9.62293 8.29463 9.54479Z" fill="#2B1A2E"/>
</svg>
