<svg width="16" height="16" viewBox="0 0 16 16" fill="none" xmlns="http://www.w3.org/2000/svg">
<path fill-rule="evenodd" clip-rule="evenodd" d="M8.85024 3.59285L13.8662 11.2244C14.0446 11.596 14.0446 12.0385 13.8662 12.4071C13.6879 12.7788 13.3703 13 13.016 13H2.98401C2.62973 13 2.31211 12.7788 2.13377 12.4071C1.95541 12.0355 1.95541 11.5931 2.13377 11.2244L7.14975 3.59285C7.32811 3.22123 7.64571 3 8 3C8.35426 3 8.67188 3.22123 8.85024 3.59285ZM8.74995 8.80373C8.74995 9.2475 8.41419 9.60704 8 9.60704C7.58581 9.60704 7.25005 9.2475 7.25002 8.80373V6.30331C7.25005 5.85954 7.58581 5.5 8 5.5C8.41419 5.5 8.74995 5.85954 8.74995 6.30331V8.80373ZM8 11.5937C7.58579 11.5937 7.25 11.2339 7.25 10.7902C7.25 10.3464 7.58579 9.9866 8 9.9866C8.41421 9.9866 8.75 10.3464 8.75 10.7902C8.75 11.2339 8.41421 11.5937 8 11.5937Z" fill="#2B1A2E"/>
</svg>
