<svg width="16" height="16" viewBox="0 0 16 16" fill="none" xmlns="http://www.w3.org/2000/svg">
<path fill-rule="evenodd" clip-rule="evenodd" d="M0.0999521 8.2717C0.903084 9.11282 2.0273 10.2527 3.33993 11.2026L1.4021 13.1404C1.32969 13.2128 1.59235 13.5928 1.98877 13.9893C2.38519 14.3857 2.76524 14.6483 2.83764 14.5759L5.12912 12.2845C6.0396 12.7212 7.00183 13 7.98298 13C11.2223 13 14.2555 9.9605 15.9008 8.23525C16.0273 8.10255 16.0339 7.89093 15.9142 7.75142C15.1172 6.82303 13.991 5.67687 12.6717 4.74288L14.4303 2.98427C14.4852 2.92932 14.2084 2.56341 13.812 2.16699C13.4156 1.77058 13.0497 1.49377 12.9947 1.54873L10.8598 3.68366C9.94255 3.26334 8.9724 3 7.98298 3C5.07183 3 2.32748 5.63027 0.606887 7.27933C0.432484 7.44649 0.268599 7.60356 0.116125 7.74679C-0.0313307 7.8853 -0.0401541 8.12497 0.0999521 8.2717ZM7.98298 10.1432C9.10707 10.1432 10.0183 9.18373 10.0183 8.00021C10.0183 6.81669 9.10707 5.85726 7.98298 5.85726C6.85889 5.85726 5.94763 6.81669 5.94763 8.00021C5.94763 9.18373 6.85889 10.1432 7.98298 10.1432Z" fill="#2B1A2E"/>
</svg>
