<svg width="16" height="16" viewBox="0 0 16 16" fill="none" xmlns="http://www.w3.org/2000/svg">
<path fill-rule="evenodd" clip-rule="evenodd" d="M4.59961 1.5C4.04732 1.5 3.59961 1.94772 3.59961 2.5V10C3.59961 10.5523 4.04732 11 4.59961 11H9.09961C9.65189 11 10.0996 10.5523 10.0996 10V2.5C10.0996 1.94772 9.65189 1.5 9.09961 1.5H4.59961ZM7.49961 4.48C7.49961 4.2149 7.27575 4 6.99961 4C6.72347 4 6.49961 4.2149 6.49961 4.48L6.49961 6.88001C6.49961 7.14511 6.72347 7.36001 6.99961 7.36001C7.27575 7.36001 7.49961 7.14511 7.49961 6.88001L7.49961 4.48ZM6.99961 8C6.72347 8 6.49961 8.22386 6.49961 8.5C6.49961 8.77614 6.72347 9 6.99961 9C7.27575 9 7.49961 8.77614 7.49961 8.5C7.49961 8.22386 7.27575 8 6.99961 8Z" fill="#2B1A2E"/>
<path d="M6 13.5V12H10C10.5523 12 11 11.5523 11 11V5H11.5C12.0523 5 12.5 5.44772 12.5 6V13.5C12.5 14.0523 12.0523 14.5 11.5 14.5H7C6.44772 14.5 6 14.0523 6 13.5Z" fill="#2B1A2E"/>
</svg>
