<svg width="16" height="16" viewBox="0 0 16 16" fill="none" xmlns="http://www.w3.org/2000/svg">
<path fill-rule="evenodd" clip-rule="evenodd" d="M10.9998 13C12.5007 13 14.0008 12.1 14 10.3C13.9992 8.5 13.0009 7.6 11.5 7.6C12.0008 6.7 11.0006 4 7.99961 4C4.99863 4 3.99997 6.7 4.5 7.6C2.9999 7.6 2 8.5 2 10.3C2 12.1 3.5001 13 5.0002 13H10.9998ZM8.33707 7.26819C8.14587 7.11054 7.85249 7.11061 7.66137 7.26835L6.16206 8.50585C5.95854 8.67383 5.94486 8.95849 6.1315 9.14165C6.31814 9.32482 6.63443 9.33713 6.83795 9.16915L7.49932 8.62327V10.65C7.49932 10.8985 7.72318 11.1 7.99932 11.1C8.27546 11.1 8.49932 10.8985 8.49932 10.65V8.62255L9.16244 9.16931C9.36606 9.33719 9.68234 9.32473 9.86887 9.14148C10.0554 8.95823 10.0416 8.67357 9.83795 8.50569L8.33707 7.26819Z" fill="#2B1A2E"/>
</svg>
