<svg width="16" height="16" viewBox="0 0 16 16" fill="none" xmlns="http://www.w3.org/2000/svg">
<path fill-rule="evenodd" clip-rule="evenodd" d="M8 2C4.68629 2 2 4.68629 2 8C2 11.3137 4.68629 14 8 14C11.3137 14 14 11.3137 14 8C14 4.68629 11.3137 2 8 2ZM5.85366 7.85247C5.65845 8.04779 5.34187 8.04788 5.14655 7.85268C4.95123 7.65747 4.95114 7.34089 5.14634 7.14557L7.64439 4.64606C7.83957 4.45077 8.1561 4.45064 8.35143 4.64578L10.8534 7.1453C11.0487 7.34046 11.0489 7.65705 10.8537 7.8524C10.6586 8.04776 10.342 8.04791 10.1466 7.85275L8.49805 6.20578V10.9995C8.49805 11.2757 8.27419 11.4995 7.99805 11.4995C7.7219 11.4995 7.49805 11.2757 7.49805 10.9995L7.49805 6.20712L5.85366 7.85247Z" fill="#2B1A2E"/>
</svg>
