<svg width="16" height="16" viewBox="0 0 16 16" fill="none" xmlns="http://www.w3.org/2000/svg">
<path d="M7.87695 6C7.46274 6 7.12695 6.33579 7.12695 6.75C7.12695 7.16421 7.46274 7.5 7.87695 7.5C8.29116 7.5 8.62695 7.16421 8.62695 6.75C8.62695 6.33579 8.29116 6 7.87695 6Z" fill="#2B1A2E"/>
<path fill-rule="evenodd" clip-rule="evenodd" d="M4 2.5C3.17157 2.5 2.5 3.17157 2.5 4V12C2.5 12.8284 3.17157 13.5 4 13.5H12C12.8284 13.5 13.5 12.8284 13.5 12V4C13.5 3.17157 12.8284 2.5 12 2.5H4ZM6.12695 6.75C6.12695 5.7835 6.91045 5 7.87695 5C8.84345 5 9.62695 5.7835 9.62695 6.75C9.62695 7.71649 8.84345 8.5 7.87695 8.5C6.91045 8.5 6.12695 7.71649 6.12695 6.75ZM6.82652 10.0321C6.57661 10.1988 6.5 10.374 6.5 10.5C6.5 10.7761 6.27614 11 6 11C5.72386 11 5.5 10.7761 5.5 10.5C5.5 9.93563 5.84312 9.48589 6.27182 9.20009C6.70402 8.91196 7.27229 8.75 7.875 8.75C8.47771 8.75 9.04598 8.91196 9.47817 9.20009C9.90687 9.48589 10.25 9.93563 10.25 10.5C10.25 10.7761 10.0261 11 9.74999 11C9.47385 11 9.24999 10.7761 9.24999 10.5C9.24999 10.374 9.17339 10.1988 8.92347 10.0321C8.67705 9.86786 8.30782 9.75 7.875 9.75C7.44217 9.75 7.07294 9.86786 6.82652 10.0321Z" fill="#2B1A2E"/>
</svg>
