<svg width="17" height="16" viewBox="0 0 17 16" fill="none" xmlns="http://www.w3.org/2000/svg">
<path d="M8.00052 8C8.00052 7.44772 7.5528 7 7.00052 7H5.99805C5.44576 7 4.99805 7.44772 4.99805 8V9C4.99805 9.55228 5.44576 10 5.99805 10H7.00052C7.5528 10 8.00052 9.55228 8.00052 9V8Z" fill="#2B1A2E"/>
<path fill-rule="evenodd" clip-rule="evenodd" d="M7 4V2.99902C7 2.44728 6.55272 2 6.00098 2C5.44923 2 5.00195 2.44728 5.00195 2.99902V4H3.50124C2.67213 4 2 4.67157 2 5.5V12.5C2 13.3284 2.67213 14 3.50124 14H12.5087C13.3378 14 14.0099 13.3284 14.0099 12.5V5.5C14.0099 4.67157 13.3378 4 12.5087 4H11.0067V3C11.0067 2.44772 10.5556 2 10.0033 2C9.45106 2 9 2.44772 9 3V4H7ZM3.99763 6L11.998 6C11.998 6.5 11.9985 6.22386 11.9985 6.5L12.002 12C11.998 11.9961 11.9792 12 11.7028 12H4.71693C4.44056 12 4.49805 12 3.99763 12V6.5C3.99763 6.22386 3.99763 6 3.99763 6Z" fill="#2B1A2E"/>
</svg>
