<svg width="16" height="16" viewBox="0 0 16 16" fill="none" xmlns="http://www.w3.org/2000/svg">
<g clip-path="url(#clip0_1_798)">
<path d="M8 7C8.55229 7 9 7.44772 9 8V10.6667C9 11.219 8.55229 11.6667 8 11.6667C7.44772 11.6667 7 11.219 7 10.6667V8C7 7.44772 7.44772 7 8 7Z" fill="#2B1A2E"/>
<path d="M8 4.3335C7.44772 4.3335 7 4.78121 7 5.3335C7 5.88578 7.44772 6.3335 8 6.3335H8.0081C8.56038 6.3335 9.0081 5.88578 9.0081 5.3335C9.0081 4.78121 8.56038 4.3335 8.0081 4.3335H8Z" fill="#2B1A2E"/>
<path fill-rule="evenodd" clip-rule="evenodd" d="M0.583984 8.00016C0.583984 3.90405 3.90454 0.583496 8.00065 0.583496C12.0968 0.583496 15.4173 3.90405 15.4173 8.00016C15.4173 12.0963 12.0968 15.4168 8.00065 15.4168C3.90454 15.4168 0.583984 12.0963 0.583984 8.00016ZM8.00065 2.0835C4.73297 2.0835 2.08398 4.73248 2.08398 8.00016C2.08398 11.2678 4.73297 13.9168 8.00065 13.9168C11.2683 13.9168 13.9173 11.2678 13.9173 8.00016C13.9173 4.73248 11.2683 2.0835 8.00065 2.0835Z" fill="#2B1A2E"/>
</g>
<defs>
<clipPath id="clip0_1_798">
<rect width="16" height="16" fill="white"/>
</clipPath>
</defs>
</svg>
