<svg width="16" height="16" viewBox="0 0 16 16" fill="none" xmlns="http://www.w3.org/2000/svg">
<path fill-rule="evenodd" clip-rule="evenodd" d="M1.5 4C1.5 3.44772 1.96562 3 2.54 3H13.46C14.0344 3 14.5 3.44772 14.5 4C14.5 4.55228 14.0344 5 13.46 5H2.54C1.96562 5 1.5 4.55228 1.5 4ZM1.5 8C1.5 7.44772 1.96562 7 2.54 7H13.46C14.0344 7 14.5 7.44772 14.5 8C14.5 8.55228 14.0344 9 13.46 9H2.54C1.96562 9 1.5 8.55228 1.5 8ZM2.54 11C1.96562 11 1.5 11.4477 1.5 12C1.5 12.5523 1.96562 13 2.54 13H13.46C14.0344 13 14.5 12.5523 14.5 12C14.5 11.4477 14.0344 11 13.46 11H2.54Z" fill="#2B1A2E"/>
</svg>
