<svg width="16" height="16" viewBox="0 0 16 16" fill="none" xmlns="http://www.w3.org/2000/svg">
<path d="M8 11.8182C5.89128 11.8182 4.18182 10.1087 4.18182 8C4.18182 5.89128 5.89128 4.18182 8 4.18182C10.1087 4.18182 11.8182 5.89128 11.8182 8C11.8182 10.1087 10.1087 11.8182 8 11.8182ZM7.36364 1H8.63636V2.90909H7.36364V1ZM7.36364 13.0909H8.63636V15H7.36364V13.0909ZM2.60028 3.50023L3.50023 2.60028L4.85016 3.95021L3.95021 4.85016L2.60028 3.50023ZM11.1498 12.0498L12.0498 11.1498L13.3997 12.4998L12.4998 13.3997L11.1498 12.0498ZM12.4998 2.60028L13.3997 3.50023L12.0498 4.85016L11.1498 3.95021L12.4998 2.60028ZM3.95021 11.1498L4.85016 12.0498L3.50023 13.3997L2.60028 12.4998L3.95021 11.1498ZM15 7.36364V8.63636H13.0909V7.36364H15ZM2.90909 7.36364V8.63636H1V7.36364H2.90909Z" fill="black"/>
</svg>
