<svg width="16" height="16" viewBox="0 0 16 16" fill="none" xmlns="http://www.w3.org/2000/svg">
<path fill-rule="evenodd" clip-rule="evenodd" d="M9 2H7C6.44772 2 6 2.44772 6 3V4H6.83H9.17L10 4V3C10 2.44772 9.55228 2 9 2ZM4 4V4.18375C3.86279 4.22509 3.73649 4.27573 3.61708 4.33776C3.06915 4.62239 2.62239 5.06915 2.33776 5.61708C2 6.26729 2 7.12153 2 8.83L2 11.17C2 12.8785 2 13.7327 2.33776 14.3829C2.62239 14.9309 3.06915 15.3776 3.61708 15.6622C4.26729 16 5.12153 16 6.83 16H9.17C10.8785 16 11.7327 16 12.3829 15.6622C12.9309 15.3776 13.3776 14.9309 13.6622 14.3829C14 13.7327 14 12.8785 14 11.17V8.83C14 7.12153 14 6.26729 13.6622 5.61708C13.3776 5.06915 12.9309 4.62239 12.3829 4.33776C12.2635 4.27573 12.1372 4.22509 12 4.18375V4V3C12 1.34315 10.6569 0 9 0L7 0C5.34315 0 4 1.34315 4 3V4ZM4.99221 6.03536C5.39864 6.00161 5.94219 6 6.83 6H9.17C10.0578 6 10.6014 6.00161 11.0078 6.03536C11.1971 6.05108 11.3115 6.07082 11.3808 6.08743C11.4138 6.09533 11.434 6.10195 11.445 6.10593C11.4555 6.10976 11.46 6.11207 11.461 6.11259C11.6436 6.20746 11.7925 6.35638 11.8874 6.53903C11.8879 6.54002 11.8902 6.54451 11.8941 6.55503C11.8981 6.56598 11.9047 6.58624 11.9126 6.61921C11.9292 6.68854 11.9489 6.8029 11.9646 6.99221C11.9984 7.39864 12 7.94219 12 8.83V11.17C12 12.0578 11.9984 12.6014 11.9646 13.0078C11.9489 13.1971 11.9292 13.3115 11.9126 13.3808C11.9047 13.4138 11.8981 13.434 11.8941 13.445C11.8902 13.4555 11.8879 13.46 11.8874 13.461C11.7925 13.6436 11.6436 13.7925 11.461 13.8874C11.46 13.8879 11.4555 13.8902 11.445 13.8941C11.434 13.8981 11.4138 13.9047 11.3808 13.9126C11.3115 13.9292 11.1971 13.9489 11.0078 13.9646C10.6014 13.9984 10.0578 14 9.17 14H6.83C5.94219 14 5.39864 13.9984 4.99221 13.9646C4.8029 13.9489 4.68854 13.9292 4.61921 13.9126C4.58624 13.9047 4.56598 13.8981 4.55503 13.8941C4.54451 13.8902 4.54002 13.8879 4.53903 13.8874C4.35638 13.7925 4.20746 13.6436 4.11259 13.461C4.11207 13.46 4.10976 13.4555 4.10593 13.445C4.10195 13.434 4.09533 13.4138 4.08743 13.3808C4.07082 13.3115 4.05108 13.1971 4.03536 13.0078C4.00161 12.6014 4 12.0578 4 11.17L4 8.83C4 7.94219 4.00161 7.39864 4.03536 6.99221C4.05108 6.8029 4.07082 6.68854 4.08743 6.61921C4.09533 6.58624 4.10195 6.56598 4.10593 6.55503C4.10976 6.54451 4.11207 6.54002 4.11259 6.53903C4.20746 6.35638 4.35638 6.20746 4.53903 6.11259C4.54002 6.11207 4.54451 6.10976 4.55503 6.10593C4.56598 6.10195 4.58624 6.09533 4.61921 6.08743C4.68854 6.07082 4.8029 6.05108 4.99221 6.03536ZM8 11C8.55228 11 9 10.5523 9 10C9 9.44771 8.55228 9 8 9C7.44772 9 7 9.44771 7 10C7 10.5523 7.44772 11 8 11Z" fill="#3D3D3D"/>
</svg>
