<svg width="16" height="16" viewBox="0 0 16 16" fill="none" xmlns="http://www.w3.org/2000/svg">
<path d="M12.4795 4.68394C12.8573 4.28103 12.8369 3.6482 12.4339 3.27047C12.031 2.89274 11.3982 2.91315 11.0205 3.31606L8 6.53789L4.97954 3.31606C4.60181 2.91315 3.96897 2.89274 3.56606 3.27047C3.16315 3.6482 3.14274 4.28103 3.52047 4.68394V8V11.3161C3.14274 11.719 3.16315 12.3518 3.56606 12.7295C3.96897 13.1073 4.60181 13.0869 4.97954 12.6839L8 9.46212L11.0205 12.6839C11.3982 13.0869 12.031 13.1073 12.4339 12.7295C12.8369 12.3518 12.8573 11.719 12.4795 11.3161L9.37073 8L12.4795 4.68394Z" fill="black"/>
</svg>
