<svg width="16" height="16" viewBox="0 0 16 16" fill="none" xmlns="http://www.w3.org/2000/svg">
<path d="M11 8C11 8.82837 11.6716 9.5 12.5 9.5C13.3284 9.5 14 8.82837 14 8C14 7.17163 13.3284 6.5 12.5 6.5C11.6716 6.5 11 7.17163 11 8Z" fill="#2B1A2E"/>
<path d="M8.01172 9.5C7.1833 9.5 6.51172 8.82837 6.51172 8C6.51172 7.17163 7.1833 6.5 8.01172 6.5C8.84014 6.5 9.51172 7.17163 9.51172 8C9.51172 8.82837 8.84014 9.5 8.01172 9.5Z" fill="#2B1A2E"/>
<path d="M3.5 9.5C2.67158 9.5 2 8.82837 2 8C2 7.17163 2.67158 6.5 3.5 6.5C4.32842 6.5 5 7.17163 5 8C5 8.82837 4.32842 9.5 3.5 9.5Z" fill="#2B1A2E"/>
</svg>
