<svg width="16" height="16" viewBox="0 0 16 16" fill="none" xmlns="http://www.w3.org/2000/svg">
<g clip-path="url(#clip0_1_799)">
<path fill-rule="evenodd" clip-rule="evenodd" d="M0.583984 8.00016C0.583984 3.90405 3.90454 0.583496 8.00065 0.583496C12.0968 0.583496 15.4173 3.90405 15.4173 8.00016C15.4173 12.0963 12.0968 15.4168 8.00065 15.4168C3.90454 15.4168 0.583984 12.0963 0.583984 8.00016ZM8.00065 2.0835C4.73297 2.0835 2.08398 4.73248 2.08398 8.00016C2.08398 11.2678 4.73297 13.9168 8.00065 13.9168C11.2683 13.9168 13.9173 11.2678 13.9173 8.00016C13.9173 4.73248 11.2683 2.0835 8.00065 2.0835Z" fill="#2B1A2E"/>
<path d="M10.1425 7.4855C10.5309 7.71855 10.5309 8.28145 10.1425 8.5145L6.9087 10.4548C6.50878 10.6947 6 10.4067 6 9.94029V6.05971C6 5.59334 6.50878 5.30527 6.9087 5.54522L10.1425 7.4855Z" fill="#2B1A2E"/>
</g>
<defs>
<clipPath id="clip0_1_799">
<rect width="16" height="16" fill="white"/>
</clipPath>
</defs>
</svg>
