<svg width="16" height="16" viewBox="0 0 16 16" fill="none" xmlns="http://www.w3.org/2000/svg">
<path fill-rule="evenodd" clip-rule="evenodd" d="M10.8492 7.75926C11.2686 8.11868 11.8999 8.07012 12.2593 7.65079C12.6187 7.23147 12.5701 6.60017 12.1508 6.24074L8.65482 3.24418C8.49129 3.10239 8.28128 3.01278 8.0507 3.00128C8.01596 2.99952 7.98116 2.99957 7.94643 3.00143C7.72638 3.01305 7.52518 3.09582 7.36543 3.22715C7.35999 3.23161 7.35459 3.23615 7.34923 3.24074L3.84923 6.24074C3.4299 6.60017 3.38134 7.23147 3.74076 7.65079C4.10018 8.07012 4.73148 8.11868 5.15081 7.75926L7.00004 6.1742L7.00004 12C7.00004 12.5523 7.44775 13 8.00004 13C8.55232 13 9.00004 12.5523 9.00004 12L9.00004 6.17424L10.8492 7.75926Z" fill="#2B1A2E"/>
</svg>
