<svg width="16" height="16" viewBox="0 0 16 16" fill="none" xmlns="http://www.w3.org/2000/svg">
<path fill-rule="evenodd" clip-rule="evenodd" d="M7.99983 13.25C10.8994 13.25 13.25 10.8994 13.25 7.99983C13.25 5.10024 10.8994 2.74966 7.99983 2.74966C5.10024 2.74966 2.74966 5.10024 2.74966 7.99983C2.74966 10.8994 5.10024 13.25 7.99983 13.25ZM14.75 7.99983C14.75 11.7278 11.7278 14.75 7.99983 14.75C4.27181 14.75 1.24966 11.7278 1.24966 7.99983C1.24966 4.27181 4.27181 1.24966 7.99983 1.24966C11.7278 1.24966 14.75 4.27181 14.75 7.99983ZM7.99837 11.1499C7.79946 11.1499 7.60869 11.0709 7.46804 10.9302L5.06797 8.53016C4.77508 8.23727 4.77508 7.7624 5.06797 7.4695C5.36086 7.17661 5.83574 7.17661 6.12863 7.4695L7.25 8.59087L7.25 5.59977C7.25 5.18555 7.58579 4.84977 8 4.84977C8.41421 4.84977 8.75 5.18555 8.75 5.59977L8.75 8.58761L9.86811 7.4695C10.161 7.17661 10.6359 7.17661 10.9288 7.4695C11.2217 7.7624 11.2217 8.23727 10.9288 8.53016L8.559 10.8999C8.42167 11.0534 8.22211 11.1499 8 11.1499C7.99973 11.1499 7.99945 11.1499 7.99918 11.1499C7.99891 11.1499 7.99864 11.1499 7.99837 11.1499Z" fill="#2B1A2E"/>
</svg>
