<svg width="16" height="16" viewBox="0 0 16 16" fill="none" xmlns="http://www.w3.org/2000/svg">
<path fill-rule="evenodd" clip-rule="evenodd" d="M3.66987 9.2151C3.11732 8.7789 2.66213 8.34098 2.33571 8C2.66213 7.65902 3.11732 7.2211 3.66987 6.7849C4.86829 5.83884 6.39898 5 8 5C9.60102 5 11.1317 5.83884 12.3301 6.7849C12.8827 7.2211 13.3379 7.65902 13.6643 8C13.3379 8.34098 12.8827 8.7789 12.3301 9.2151C11.1317 10.1612 9.60102 11 8 11C6.39898 11 4.86829 10.1612 3.66987 9.2151ZM15 8C15.7872 7.38326 15.787 7.38301 15.7868 7.38275L15 8ZM15.7868 7.38275C16.0705 7.74495 16.0709 8.25455 15.7872 8.61674L15 8C15.7872 8.61674 15.7865 8.61759 15.7863 8.61785L15.7851 8.61932L15.7819 8.62336L15.7721 8.63574C15.764 8.64586 15.7529 8.6597 15.7388 8.67702C15.7105 8.71163 15.6703 8.76017 15.6188 8.82064C15.5157 8.9415 15.3669 9.11053 15.1769 9.31168C14.798 9.71279 14.2496 10.2479 13.5694 10.7849C12.2343 11.8388 10.265 13 8 13C5.73503 13 3.76571 11.8388 2.43063 10.7849C1.75036 10.2479 1.20202 9.71279 0.823132 9.31168C0.633132 9.11053 0.484267 8.9415 0.381229 8.82064C0.329675 8.76017 0.289485 8.71163 0.261248 8.67702C0.247126 8.6597 0.235983 8.64586 0.227893 8.63574L0.218052 8.62336L0.214863 8.61932L0.212836 8.61674L1 8C0.212836 7.38326 0.213499 7.38241 0.213704 7.38215L0.214863 7.38068L0.218052 7.37664L0.227893 7.36426C0.235983 7.35414 0.247126 7.3403 0.261248 7.32298C0.289485 7.28837 0.329675 7.23983 0.381229 7.17936C0.484267 7.0585 0.633132 6.88947 0.823132 6.68832C1.20202 6.28721 1.75036 5.75212 2.43063 5.2151C3.76571 4.16116 5.73503 3 8 3C10.265 3 12.2343 4.16116 13.5694 5.2151C14.2496 5.75212 14.798 6.28721 15.1769 6.68832C15.3669 6.88947 15.5157 7.0585 15.6188 7.17936C15.6703 7.23983 15.7105 7.28837 15.7388 7.32298C15.7529 7.3403 15.764 7.35414 15.7721 7.36426L15.7819 7.37664L15.7851 7.38068L15.7868 7.38275ZM1 8C0.217541 8.61306 0.212662 8.61646 0.212833 8.61674L0.212836 8.61674C-0.0709454 8.25455 -0.0709454 7.74545 0.212836 7.38326L1 8ZM8 10C9.10457 10 10 9.10457 10 8C10 6.89543 9.10457 6 8 6C6.89543 6 6 6.89543 6 8C6 9.10457 6.89543 10 8 10Z" fill="#2B1A2E"/>
</svg>
