<svg width="16" height="16" viewBox="0 0 16 16" fill="none" xmlns="http://www.w3.org/2000/svg">
<path fill-rule="evenodd" clip-rule="evenodd" d="M6.33398 4.66667C6.33398 3.74619 7.08018 3 8.00065 3C8.92113 3 9.66732 3.74619 9.66732 4.66667C9.66732 5.58714 8.92113 6.33333 8.00065 6.33333C7.08018 6.33333 6.33398 5.58714 6.33398 4.66667ZM8.00065 1C5.97561 1 4.33398 2.64162 4.33398 4.66667C4.33398 6.69171 5.97561 8.33333 8.00065 8.33333C10.0257 8.33333 11.6673 6.69171 11.6673 4.66667C11.6673 2.64162 10.0257 1 8.00065 1ZM5.33268 9C4.36022 9 3.42759 9.38631 2.73996 10.0739C2.05232 10.7616 1.66602 11.6942 1.66602 12.6667V14C1.66602 14.5523 2.11373 15 2.66602 15C3.2183 15 3.66602 14.5523 3.66602 14V12.6667C3.66602 12.2246 3.84161 11.8007 4.15417 11.4882C4.46673 11.1756 4.89066 11 5.33268 11H10.666C11.108 11 11.532 11.1756 11.8445 11.4882C12.1571 11.8007 12.3327 12.2246 12.3327 12.6667V14C12.3327 14.5523 12.7804 15 13.3327 15C13.885 15 14.3327 14.5523 14.3327 14V12.6667C14.3327 11.6942 13.9464 10.7616 13.2587 10.0739C12.5711 9.38631 11.6385 9 10.666 9H5.33268Z" fill="#2B1A2E"/>
</svg>
