<svg width="16" height="16" viewBox="0 0 16 16" fill="none" xmlns="http://www.w3.org/2000/svg">
<path d="M6.00049 4C5.4482 4 5.00049 4.44772 5.00049 5C5.00049 5.55228 5.4482 6 6.00049 6L8.4393 6L4.31828 10.121C3.92776 10.5115 3.92776 11.1447 4.31828 11.5352C4.70881 11.9258 5.34197 11.9258 5.7325 11.5352L10.0352 7.23257V9.76758C10.0352 10.3199 10.4829 10.7676 11.0352 10.7676C11.5874 10.7676 12.0352 10.3199 12.0352 9.76758V5C12.0352 4.73478 11.9298 4.48043 11.7423 4.29289C11.5547 4.10536 11.3004 4 11.0352 4H6.00049Z" fill="#2B1A2E"/>
</svg>
