<svg width="16" height="16" viewBox="0 0 16 16" fill="none" xmlns="http://www.w3.org/2000/svg">
<path fill-rule="evenodd" clip-rule="evenodd" d="M2.75 8.00017C2.75 5.10058 5.10058 2.75 8.00017 2.75C10.8998 2.75 13.2503 5.10058 13.2503 8.00017C13.2503 10.8998 10.8998 13.2503 8.00017 13.2503C5.10058 13.2503 2.75 10.8998 2.75 8.00017ZM8.00017 1.25C4.27215 1.25 1.25 4.27215 1.25 8.00017C1.25 11.7282 4.27215 14.7503 8.00017 14.7503C11.7282 14.7503 14.7503 11.7282 14.7503 8.00017C14.7503 4.27215 11.7282 1.25 8.00017 1.25ZM6 7.25C5.58579 7.25 5.25 7.58579 5.25 8C5.25 8.41421 5.58579 8.75 6 8.75H10C10.4142 8.75 10.75 8.41421 10.75 8C10.75 7.58579 10.4142 7.25 10 7.25H6Z" fill="#2B1A2E"/>
</svg>
