<svg width="16" height="16" viewBox="0 0 16 16" fill="none" xmlns="http://www.w3.org/2000/svg">
<path d="M8.2427 10.8497C7.88327 11.269 7.93184 11.9003 8.35116 12.2597C8.77049 12.6192 9.40179 12.5706 9.76121 12.1513L12.7576 8.65549C12.9054 8.48512 12.9966 8.26425 13.0017 8.02222C13.0019 8.01498 13.002 8.00773 13.002 8.00049C13.002 7.7499 12.9098 7.52084 12.7575 7.34536L9.76121 3.8497C9.40179 3.43037 8.77049 3.38181 8.35116 3.74123C7.93184 4.10066 7.88327 4.73196 8.2427 5.15128L9.82773 7.00049L4.00195 7.00049C3.44967 7.00049 3.00195 7.44821 3.00195 8.00049C3.00195 8.55278 3.44967 9.00049 4.00195 9.00049L9.82773 9.00049L8.2427 10.8497Z" fill="#2B1A2E"/>
</svg>
