<svg width="16" height="16" viewBox="0 0 16 16" fill="none" xmlns="http://www.w3.org/2000/svg">
<path d="M7.02392 2.92447C7.02392 2.4139 7.46093 2 8 2C8.53907 2 8.97608 2.4139 8.97608 2.92447V6.91221C8.97608 7.00231 9.05319 7.07535 9.14832 7.07535H13.0239C13.563 7.07535 14 7.48925 14 7.99982C14 8.51039 13.563 8.92429 13.0239 8.92429H9.14832C9.05319 8.92429 8.97608 8.99733 8.97608 9.08744V13.0755C8.97608 13.5861 8.53907 14 8 14C7.46093 14 7.02392 13.5861 7.02392 13.0755V9.08744C7.02392 8.99733 6.94681 8.92429 6.85167 8.92429H2.97608C2.437 8.92429 2 8.51039 2 7.99982C2 7.48925 2.437 7.07535 2.97608 7.07535H6.85167C6.94681 7.07535 7.02392 7.00231 7.02392 6.91221V2.92447Z" fill="#2B1A2E"/>
</svg>
