<svg width="16" height="16" viewBox="0 0 16 16" fill="none" xmlns="http://www.w3.org/2000/svg">
<path fill-rule="evenodd" clip-rule="evenodd" d="M4 3H12V13H4L4 3ZM2 3C2 1.89543 2.89543 1 4 1H12C13.1046 1 14 1.89543 14 3V13C14 14.1046 13.1046 15 12 15H4C2.89543 15 2 14.1046 2 13V3ZM5.48 5C5.2149 5 5 5.44772 5 6C5 6.55228 5.2149 7 5.48 7H10.52C10.7851 7 11 6.55228 11 6C11 5.44772 10.7851 5 10.52 5H5.48ZM5 10C5 9.44771 5.2149 9 5.48 9H10.52C10.7851 9 11 9.44771 11 10C11 10.5523 10.7851 11 10.52 11H5.48C5.2149 11 5 10.5523 5 10Z" fill="#2B1A2E"/>
</svg>
