<svg width="16" height="16" viewBox="0 0 16 16" fill="none" xmlns="http://www.w3.org/2000/svg">
<mask id="path-1-inside-1_1_895" fill="white">
<path fill-rule="evenodd" clip-rule="evenodd" d="M13 8C13 10.7614 10.7614 13 8 13C5.23858 13 3 10.7614 3 8C3 5.23858 5.23858 3 8 3C9.38071 3 10.6307 3.55964 11.5355 4.46447C11.4722 4.40112 11.4072 4.33947 11.3405 4.27958L12.1051 3.62416C11.0319 2.61692 9.588 2 8 2C4.68629 2 2 4.68629 2 8C2 11.3137 4.68629 14 8 14C11.3137 14 14 11.3137 14 8H13Z"/>
</mask>
<path fill-rule="evenodd" clip-rule="evenodd" d="M13 8C13 10.7614 10.7614 13 8 13C5.23858 13 3 10.7614 3 8C3 5.23858 5.23858 3 8 3C9.38071 3 10.6307 3.55964 11.5355 4.46447C11.4722 4.40112 11.4072 4.33947 11.3405 4.27958L12.1051 3.62416C11.0319 2.61692 9.588 2 8 2C4.68629 2 2 4.68629 2 8C2 11.3137 4.68629 14 8 14C11.3137 14 14 11.3137 14 8H13Z" fill="#2B1A2E"/>
<path d="M13 8V7H12V8H13ZM11.3405 4.27958L10.6897 3.52032L9.82455 4.26188L10.6722 5.02343L11.3405 4.27958ZM12.1051 3.62416L12.7559 4.38342L13.6024 3.6579L12.7895 2.89499L12.1051 3.62416ZM14 8H15V7H14V8ZM8 14C11.3137 14 14 11.3137 14 8H12C12 10.2091 10.2091 12 8 12V14ZM2 8C2 11.3137 4.68629 14 8 14V12C5.79086 12 4 10.2091 4 8H2ZM8 2C4.68629 2 2 4.68629 2 8H4C4 5.79086 5.79086 4 8 4V2ZM12.2426 3.75736C11.1579 2.67267 9.65658 2 8 2V4C9.10485 4 10.1035 4.44662 10.8284 5.17157L12.2426 3.75736ZM12.2426 3.75736C12.1667 3.68142 12.0887 3.60752 12.0088 3.53572L10.6722 5.02343C10.7256 5.07142 10.7777 5.12081 10.8284 5.17157L12.2426 3.75736ZM11.9913 5.03883L12.7559 4.38342L11.4544 2.8649L10.6897 3.52032L11.9913 5.03883ZM12.7895 2.89499C11.5382 1.72068 9.85218 1 8 1V3C9.32382 3 10.5256 3.51315 11.4208 4.35333L12.7895 2.89499ZM8 1C4.13401 1 1 4.13401 1 8H3C3 5.23858 5.23858 3 8 3V1ZM1 8C1 11.866 4.13401 15 8 15V13C5.23858 13 3 10.7614 3 8H1ZM8 15C11.866 15 15 11.866 15 8H13C13 10.7614 10.7614 13 8 13V15ZM14 7H13V9H14V7Z" fill="black" mask="url(#path-1-inside-1_1_895)"/>
</svg>
