<svg width="16" height="16" viewBox="0 0 16 16" fill="none" xmlns="http://www.w3.org/2000/svg">
<path fill-rule="evenodd" clip-rule="evenodd" d="M8.15079 3.74076C8.57012 4.10018 8.61868 4.73148 8.25926 5.15081L5.81708 8.00002L8.25926 10.8492C8.61868 11.2686 8.57012 11.8999 8.15079 12.2593C7.73147 12.6187 7.10017 12.5701 6.74074 12.1508L3.74074 8.65081C3.41975 8.27632 3.41975 7.72372 3.74074 7.34923L6.74074 3.84923C7.10017 3.4299 7.73147 3.38134 8.15079 3.74076Z" fill="#2B1A2E"/>
<path fill-rule="evenodd" clip-rule="evenodd" d="M13.5 8.00002C13.5 8.5523 13.0523 9.00002 12.5 9.00002L4.5 9.00002C3.94771 9.00002 3.5 8.5523 3.5 8.00002C3.5 7.44773 3.94771 7.00002 4.5 7.00002L12.5 7.00002C13.0523 7.00002 13.5 7.44773 13.5 8.00002Z" fill="#2B1A2E"/>
</svg>
