<svg width="16" height="16" viewBox="0 0 16 16" fill="none" xmlns="http://www.w3.org/2000/svg">
<path fill-rule="evenodd" clip-rule="evenodd" d="M7.80201 2.76201C7.85452 2.7095 7.92574 2.68 8 2.68C8.07426 2.68 8.14548 2.7095 8.19799 2.76201C8.2505 2.81452 8.28 2.88574 8.28 2.96L8.27999 3.0104L8.28001 3.01375C8.28138 3.35777 8.38331 3.69388 8.57327 3.98071C8.76239 4.26628 9.03054 4.49059 9.34497 4.6263C9.66634 4.76716 10.0225 4.80898 10.3678 4.74637C10.7146 4.68348 11.0346 4.51815 11.2866 4.27168L11.2866 4.27172L11.2932 4.26517L11.3268 4.23157L11.3271 4.23124C11.3531 4.20521 11.384 4.18455 11.418 4.17046C11.452 4.15637 11.4884 4.14912 11.5252 4.14912C11.562 4.14912 11.5984 4.15637 11.6324 4.17046C11.6664 4.18455 11.6973 4.2052 11.7233 4.23124L11.724 4.2319C11.75 4.25791 11.7706 4.28879 11.7847 4.32278C11.7988 4.35677 11.8061 4.3932 11.8061 4.43C11.8061 4.46679 11.7988 4.50323 11.7847 4.53722C11.7706 4.57121 11.75 4.60209 11.724 4.6281L11.7236 4.62843L11.69 4.66203L11.69 4.662L11.6835 4.66862C11.437 4.92058 11.2717 5.2406 11.2088 5.58741C11.1559 5.87948 11.1776 6.17928 11.2708 6.45925C11.2819 6.52498 11.3007 6.58933 11.3271 6.6509C11.4626 6.96711 11.6877 7.23678 11.9745 7.42673C12.2613 7.61668 12.5974 7.71862 12.9414 7.71999V7.72H12.9448H13.04C13.1143 7.72 13.1855 7.7495 13.238 7.80201C13.2905 7.85452 13.32 7.92574 13.32 8C13.32 8.07426 13.2905 8.14548 13.238 8.19799C13.1855 8.2505 13.1143 8.28 13.04 8.28L12.9896 8.27999L12.9862 8.28001C12.6422 8.28138 12.3061 8.38331 12.0193 8.57327C11.7337 8.76238 11.5094 9.03053 11.3737 9.34494C11.2328 9.66632 11.191 10.0225 11.2536 10.3678C11.3165 10.7146 11.4818 11.0346 11.7283 11.2866L11.7283 11.2866L11.7348 11.2932L11.7684 11.3268L11.7688 11.3271C11.7948 11.3531 11.8154 11.384 11.8295 11.418C11.8436 11.452 11.8509 11.4884 11.8509 11.5252C11.8509 11.562 11.8436 11.5984 11.8295 11.6324C11.8154 11.6664 11.7948 11.6973 11.7688 11.7233L11.7681 11.724C11.7421 11.75 11.7112 11.7706 11.6772 11.7847C11.6432 11.7988 11.6068 11.8061 11.57 11.8061C11.5332 11.8061 11.4968 11.7988 11.4628 11.7847C11.4288 11.7706 11.3979 11.75 11.3719 11.724L11.3716 11.7236L11.338 11.69L11.338 11.69L11.3314 11.6835C11.0794 11.437 10.7594 11.2717 10.4126 11.2088C10.0673 11.1462 9.71112 11.188 9.38974 11.3289C9.07533 11.4646 8.80718 11.6889 8.61807 11.9745C8.42811 12.2613 8.32618 12.5974 8.32481 12.9414H8.3248V12.9448V13.04C8.3248 13.1143 8.2953 13.1855 8.24279 13.238C8.19028 13.2905 8.11906 13.32 8.0448 13.32C7.97054 13.32 7.89932 13.2905 7.84681 13.238C7.7943 13.1855 7.7648 13.1143 7.7648 13.04V12.9896L7.76457 12.97C7.75629 12.6161 7.64175 12.2729 7.43584 11.985C7.23507 11.7043 6.95651 11.4888 6.6348 11.365C6.31875 11.2311 5.9703 11.1923 5.63221 11.2536C5.2854 11.3165 4.96538 11.4818 4.71342 11.7283L4.71338 11.7283L4.70682 11.7348L4.67322 11.7684L4.6729 11.7688C4.6469 11.7948 4.61602 11.8154 4.58202 11.8295C4.54803 11.8436 4.51159 11.8509 4.4748 11.8509C4.438 11.8509 4.40157 11.8436 4.36758 11.8295C4.33358 11.8154 4.3027 11.7948 4.2767 11.7688L4.27604 11.7681C4.25001 11.7421 4.22935 11.7112 4.21526 11.6772C4.20117 11.6432 4.19392 11.6068 4.19392 11.57C4.19392 11.5332 4.20117 11.4968 4.21526 11.4628C4.22935 11.4288 4.25001 11.3979 4.27604 11.3719L4.27637 11.3716L4.30997 11.338L4.31 11.338L4.31648 11.3314C4.56295 11.0794 4.72828 10.7594 4.79117 10.4126C4.85378 10.0673 4.81196 9.71114 4.6711 9.38977C4.53539 9.07534 4.31108 8.80719 4.02551 8.61807C3.73868 8.42811 3.40257 8.32618 3.05855 8.32481V8.3248H3.0552H2.96C2.88574 8.3248 2.81452 8.2953 2.76201 8.24279C2.7095 8.19028 2.68 8.11906 2.68 8.0448C2.68 7.97054 2.7095 7.89932 2.76201 7.84681C2.81452 7.7943 2.88574 7.7648 2.96 7.7648H3.0104L3.03004 7.76457C3.38391 7.75629 3.72709 7.64175 4.015 7.43584C4.29569 7.23507 4.51118 6.9565 4.63502 6.6348C4.76886 6.31874 4.80767 5.9703 4.74637 5.63221C4.68348 5.2854 4.51815 4.96538 4.27168 4.71342L4.27172 4.71338L4.26517 4.70683L4.23157 4.67323L4.23124 4.6729C4.20521 4.64689 4.18455 4.61601 4.17046 4.58202C4.15637 4.54803 4.14912 4.5116 4.14912 4.4748C4.14912 4.438 4.15637 4.40157 4.17046 4.36758C4.18455 4.33358 4.20521 4.3027 4.23124 4.2767L4.2319 4.27604C4.2579 4.25001 4.28878 4.22935 4.32278 4.21526C4.35677 4.20117 4.3932 4.19392 4.43 4.19392C4.4668 4.19392 4.50323 4.20117 4.53722 4.21526C4.57121 4.22935 4.6021 4.25001 4.6281 4.27604L4.62843 4.27637L4.66203 4.30997L4.66199 4.31001L4.66862 4.31648C4.92058 4.56295 5.2406 4.72828 5.58741 4.79117C5.87948 4.84412 6.17928 4.82237 6.45925 4.72918C6.52498 4.71813 6.58933 4.69927 6.6509 4.67288C6.96711 4.53736 7.23678 4.31233 7.42673 4.02551C7.61668 3.73868 7.71862 3.40257 7.71999 3.05855H7.72V3.0552V2.96C7.72 2.88574 7.7495 2.81452 7.80201 2.76201ZM12.9125 10.0192L12.144 9.68001L12.9161 10.0109C12.9225 9.99585 12.9332 9.983 12.9469 9.97396C12.9604 9.96505 12.9761 9.96021 12.9922 9.96H13.04C13.5598 9.96 14.0584 9.7535 14.4259 9.38593C14.7935 9.01836 15 8.51982 15 8C15 7.48017 14.7935 6.98164 14.4259 6.61407C14.0584 6.2465 13.5598 6.04 13.04 6.04H12.9474C12.9313 6.03978 12.9155 6.03494 12.9021 6.02604L12.9012 6.02544C12.8918 5.99509 12.8806 5.96524 12.8677 5.93604C12.8609 5.92068 12.8589 5.90365 12.8619 5.88713C12.8647 5.87132 12.8721 5.85668 12.883 5.84493L12.9112 5.8167L12.9116 5.81637C13.0936 5.63441 13.2381 5.41836 13.3367 5.18056C13.4353 4.94262 13.4861 4.68758 13.4861 4.43C13.4861 4.17242 13.4353 3.91738 13.3367 3.67944C13.2381 3.44164 13.0936 3.22559 12.9116 3.04363C12.7296 2.86155 12.5136 2.7171 12.2758 2.61852C12.0378 2.51989 11.7828 2.46912 11.5252 2.46912C11.2676 2.46912 11.0126 2.51989 10.7746 2.61852C10.5368 2.7171 10.3208 2.86155 10.1388 3.04363L10.1385 3.04396L10.1103 3.07219C10.0985 3.08311 10.0839 3.09045 10.0681 3.09332C10.0515 3.09631 10.0345 3.09429 10.0192 3.08752L10.0192 3.08747L10.0109 3.08392C9.99584 3.07747 9.983 3.06675 9.97396 3.0531C9.96505 3.03965 9.96021 3.02392 9.96 3.00781V2.96C9.96 2.44018 9.7535 1.94164 9.38593 1.57407C9.01836 1.2065 8.51982 1 8 1C7.48018 1 6.98164 1.2065 6.61407 1.57407C6.2465 1.94164 6.04 2.44018 6.04 2.96V3.05264C6.03978 3.06874 6.03494 3.08445 6.02604 3.09789L6.02544 3.09879C5.99509 3.10824 5.96524 3.11943 5.93604 3.13232C5.92068 3.13909 5.90365 3.14111 5.88713 3.13812C5.87133 3.13525 5.85669 3.12792 5.84494 3.117L5.8167 3.08876L5.81637 3.08843C5.63441 2.90635 5.41836 2.7619 5.18056 2.66332C4.94262 2.56469 4.68757 2.51392 4.43 2.51392C4.17243 2.51392 3.91738 2.56469 3.67944 2.66332C3.44164 2.7619 3.22559 2.90635 3.04363 3.08843C2.86155 3.27039 2.7171 3.48644 2.61852 3.72424C2.51989 3.96218 2.46912 4.21723 2.46912 4.4748C2.46912 4.73237 2.51989 4.98742 2.61852 5.22536C2.7171 5.46316 2.86155 5.67921 3.04363 5.86117L3.04396 5.8615L3.0722 5.88974C3.08312 5.90149 3.09045 5.91613 3.09332 5.93193C3.09631 5.94845 3.09429 5.96548 3.08752 5.98084C3.08037 5.99703 3.07374 6.01344 3.06763 6.03005C3.06181 6.04587 3.05137 6.05957 3.03766 6.06938C3.02519 6.0783 3.01054 6.08361 2.99531 6.0848H2.96C2.44018 6.0848 1.94164 6.2913 1.57407 6.65887C1.2065 7.02644 1 7.52497 1 8.0448C1 8.56462 1.2065 9.06316 1.57407 9.43073C1.94164 9.7983 2.44018 10.0048 2.96 10.0048H3.05261C3.06872 10.005 3.08445 10.0099 3.09789 10.0188C3.11155 10.0278 3.12227 10.0406 3.12872 10.0557L3.12868 10.0557L3.13232 10.064C3.13909 10.0793 3.14111 10.0964 3.13812 10.1129C3.13525 10.1287 3.12791 10.1433 3.11699 10.1551L3.08876 10.1833L3.08843 10.1836C2.90635 10.3656 2.7619 10.5816 2.66332 10.8194C2.56469 11.0574 2.51392 11.3124 2.51392 11.57C2.51392 11.8276 2.56469 12.0826 2.66332 12.3206C2.76191 12.5584 2.90639 12.7745 3.08851 12.9564C3.27046 13.1385 3.48648 13.2829 3.72424 13.3815C3.96218 13.4801 4.21722 13.5309 4.4748 13.5309C4.73237 13.5309 4.98742 13.4801 5.22536 13.3815C5.4633 13.2828 5.67947 13.1383 5.8615 12.956L5.88973 12.9278C5.90148 12.9169 5.91612 12.9095 5.93193 12.9067C5.94845 12.9037 5.96548 12.9057 5.98084 12.9125C5.99703 12.9196 6.01344 12.9263 6.03005 12.9324C6.04587 12.9382 6.05957 12.9486 6.06938 12.9623C6.0783 12.9748 6.08361 12.9895 6.0848 13.0047V13.04C6.0848 13.5598 6.2913 14.0584 6.65887 14.4259C7.02644 14.7935 7.52497 15 8.0448 15C8.56462 15 9.06316 14.7935 9.43073 14.4259C9.7983 14.0584 10.0048 13.5598 10.0048 13.04V12.9474C10.005 12.9313 10.0099 12.9156 10.0188 12.9021C10.0278 12.8884 10.0406 12.8777 10.0557 12.8713L10.0557 12.8713L10.064 12.8677C10.0793 12.8609 10.0963 12.8589 10.1129 12.8619C10.1287 12.8647 10.1433 12.8721 10.1551 12.883L10.1833 12.9112L10.1836 12.9116C10.3656 13.0936 10.5816 13.2381 10.8194 13.3367C11.0574 13.4353 11.3124 13.4861 11.57 13.4861C11.8276 13.4861 12.0826 13.4353 12.3206 13.3367C12.5584 13.2381 12.7744 13.0936 12.9564 12.9116C12.9563 12.9117 12.9562 12.9118 12.956 12.9119L12.3624 12.3176L12.9567 12.9112C12.9566 12.9113 12.9565 12.9115 12.9564 12.9116C13.1384 12.7296 13.2829 12.5136 13.3815 12.2758C13.4801 12.0378 13.5309 11.7828 13.5309 11.5252C13.5309 11.2676 13.4801 11.0126 13.3815 10.7746C13.2829 10.5368 13.1384 10.3208 12.9564 10.1388L12.956 10.1385L12.9278 10.1103C12.9169 10.0985 12.9095 10.0839 12.9067 10.0681C12.9037 10.0515 12.9057 10.0345 12.9125 10.0192ZM7.16055 8.00014C7.16055 7.53622 7.53663 7.16014 8.00055 7.16014C8.46447 7.16014 8.84055 7.53622 8.84055 8.00014C8.84055 8.46406 8.46447 8.84014 8.00055 8.84014C7.53663 8.84014 7.16055 8.46406 7.16055 8.00014ZM8.00055 5.48014C6.60879 5.48014 5.48055 6.60838 5.48055 8.00014C5.48055 9.39189 6.60879 10.5201 8.00055 10.5201C9.3923 10.5201 10.5205 9.39189 10.5205 8.00014C10.5205 6.60838 9.3923 5.48014 8.00055 5.48014Z" fill="#2B1A2E"/>
</svg>
