<svg width="16" height="16" viewBox="0 0 16 16" fill="none" xmlns="http://www.w3.org/2000/svg">
<path fill-rule="evenodd" clip-rule="evenodd" d="M2.49972 1.75C2.08581 1.75 1.74992 2.08559 1.74992 2.5L1.74992 13.5C1.74992 13.9144 2.08581 14.25 2.49972 14.25C2.91363 14.25 3.24951 13.9144 3.24951 13.5L3.24951 2.5C3.24951 2.08559 2.91362 1.75 2.49972 1.75ZM13.4997 1.75C13.0858 1.75 12.7499 2.08559 12.7499 2.5L12.7499 13.5C12.7499 13.9144 13.0858 14.25 13.4997 14.25C13.9136 14.25 14.2495 13.9144 14.2495 13.5L14.2495 2.5C14.2495 2.08559 13.9136 1.75 13.4997 1.75ZM10.3143 5.50605C10.0416 5.1944 9.568 5.16286 9.2564 5.43551C8.94468 5.70826 8.91306 6.18219 9.18585 6.49396L9.84739 7.25001L6.15274 7.25001L6.81428 6.49396C7.08708 6.18219 7.05545 5.70826 6.74373 5.43551C6.43213 5.16286 5.95855 5.1944 5.68585 5.50605L3.93585 7.50605C3.68841 7.78885 3.68841 8.21117 3.93585 8.49396L5.68585 10.494C5.95855 10.8056 6.43213 10.8372 6.74373 10.5645C7.05545 10.2918 7.08708 9.81782 6.81428 9.50605L6.15274 8.75001L9.84739 8.75001L9.18585 9.50605C8.91306 9.81782 8.94468 10.2918 9.2564 10.5645C9.568 10.8372 10.0416 10.8056 10.3143 10.494L12.0643 8.49396C12.3117 8.21117 12.3117 7.78885 12.0643 7.50605L10.3143 5.50605Z" fill="#2B1A2E"/>
</svg>
