<svg width="16" height="16" viewBox="0 0 16 16" fill="none" xmlns="http://www.w3.org/2000/svg">
<path d="M0.499924 4.68222C2.54945 3.02476 5.15875 2.03207 7.99991 2.03207C10.841 2.03207 13.4503 3.02476 15.4999 4.68222L14.6665 5.71396C12.8447 4.24067 10.5254 3.35828 7.99991 3.35828C5.47443 3.35828 3.15506 4.24067 1.33326 5.71396L0.499924 4.68222ZM2.58325 7.26156C4.06347 6.06453 5.94796 5.34759 7.99991 5.34759C10.0519 5.34759 11.9363 6.06453 13.4166 7.26156L12.5832 8.29335C11.3307 7.28046 9.73617 6.67379 7.99991 6.67379C6.26365 6.67379 4.66907 7.28046 3.41658 8.29335L2.58325 7.26156ZM4.66658 9.84097C5.57748 9.10426 6.73716 8.6631 7.99991 8.6631C9.26265 8.6631 10.4224 9.10426 11.3333 9.84097L10.4999 10.8727C9.81674 10.3202 8.94695 9.9893 7.99991 9.9893C7.05286 9.9893 6.18309 10.3202 5.49991 10.8727L4.66658 9.84097ZM6.74989 12.4203C7.09152 12.1441 7.52638 11.9786 7.99991 11.9786C8.47343 11.9786 8.90829 12.1441 9.24992 12.4203L7.99991 13.9679L6.74989 12.4203Z" fill="black"/>
</svg>
