<svg width="16" height="16" viewBox="0 0 16 16" fill="none" xmlns="http://www.w3.org/2000/svg">
<path fill-rule="evenodd" clip-rule="evenodd" d="M9.40604 1.91093C7.07676 1.37334 4.72355 2.21586 3.24951 3.94181L3.24951 2.50174C3.24951 2.08733 2.91362 1.75174 2.49971 1.75174C2.0858 1.75174 1.74992 2.08733 1.74992 2.50174L1.74991 6.16813C1.74991 6.58254 2.0858 6.91813 2.49971 6.91813L6.16485 6.91813C6.57876 6.91813 6.91464 6.58254 6.91464 6.16813C6.91464 5.75373 6.57876 5.41813 6.16485 5.41813L4.01578 5.41813C5.07945 3.7735 7.08592 2.91486 9.06888 3.37253C11.4219 3.91562 12.9927 6.13907 12.7188 8.53927C12.4448 10.9395 10.4136 12.7515 7.99871 12.7501C7.5848 12.7499 7.24871 13.0853 7.24847 13.4997C7.24823 13.9141 7.58392 14.2499 7.99783 14.2501C11.1755 14.252 13.8483 11.8675 14.2087 8.70939C14.5691 5.55127 12.5023 2.62556 9.40604 1.91093Z" fill="#2B1A2E"/>
</svg>
