<svg width="16" height="16" viewBox="0 0 16 16" fill="none" xmlns="http://www.w3.org/2000/svg">
<path fill-rule="evenodd" clip-rule="evenodd" d="M4.41667 1C4.04095 1 3.68061 1.14925 3.41493 1.41493C3.14925 1.68061 3 2.04095 3 2.41667V3.83333C3 5.14837 3.5224 6.40953 4.45226 7.33937C4.74055 7.62767 5.06068 7.8768 5.40439 8.08333C5.06068 8.28987 4.74055 8.539 4.45226 8.8273C3.5224 9.75712 3 11.0183 3 12.3333V13.75C3 14.1257 3.14925 14.486 3.41493 14.7517C3.68061 15.0174 4.04095 15.1667 4.41667 15.1667H11.5C11.8757 15.1667 12.236 15.0174 12.5017 14.7517C12.7674 14.486 12.9167 14.1257 12.9167 13.75V12.3333C12.9167 11.0183 12.3943 9.75712 11.4644 8.8273C11.1761 8.539 10.856 8.28987 10.5123 8.08333C10.856 7.8768 11.1761 7.62767 11.4644 7.33937C12.3943 6.40953 12.9167 5.14836 12.9167 3.83333V2.41667C12.9167 2.04095 12.7674 1.68061 12.5017 1.41493C12.236 1.14925 11.8757 1 11.5 1H4.41667ZM7.95974 7.375C8.89855 7.37463 9.79884 7.00152 10.4626 6.33767C10.7787 6.02163 11.0288 5.65201 11.2042 5.25016H4.71241C4.88781 5.65201 5.13796 6.02163 5.454 6.33767C6.11786 7.00152 7.01812 7.37463 7.95693 7.375C7.9574 7.375 7.95787 7.375 7.95833 7.375C7.9588 7.375 7.95927 7.375 7.95974 7.375ZM4.41667 3.8335H11.5C11.5 3.83344 11.5 3.83339 11.5 3.83333V2.41667H4.41667V3.83333C4.41667 3.83339 4.41667 3.83344 4.41667 3.8335ZM7.95833 8.79167C7.01901 8.79167 6.11819 9.16482 5.454 9.82902C5.13795 10.145 4.88781 10.5147 4.71241 10.9165H11.2043C11.0288 10.5147 10.7787 10.145 10.4626 9.82902C9.79851 9.16482 8.89765 8.79167 7.95833 8.79167ZM4.41667 12.3333V12.3332H11.5V12.3333V13.75H4.41667V12.3333Z" fill="black"/>
</svg>
