<svg width="16" height="16" viewBox="0 0 16 16" fill="none" xmlns="http://www.w3.org/2000/svg">
<path fill-rule="evenodd" clip-rule="evenodd" d="M3 7.33333C3 4.9401 4.9401 3 7.33333 3C9.72657 3 11.6667 4.9401 11.6667 7.33333C11.6667 8.4924 11.2116 9.54518 10.4704 10.3228C10.4435 10.3446 10.4175 10.368 10.3925 10.393C10.3675 10.418 10.3441 10.4439 10.3224 10.4708C9.54482 11.2118 8.4922 11.6667 7.33333 11.6667C4.9401 11.6667 3 9.72657 3 7.33333ZM11.0484 12.4631C10.0048 13.2202 8.72123 13.6667 7.33333 13.6667C3.83553 13.6667 1 10.8311 1 7.33333C1 3.83553 3.83553 1 7.33333 1C10.8311 1 13.6667 3.83553 13.6667 7.33333C13.6667 8.72148 13.2201 10.0053 12.4627 11.049L14.7067 13.293C15.0972 13.6835 15.0972 14.3167 14.7067 14.7072C14.3162 15.0977 13.683 15.0977 13.2925 14.7072L11.0484 12.4631Z" fill="#2B1A2E"/>
</svg>
