<svg width="17" height="17" viewBox="0 0 17 17" fill="none" xmlns="http://www.w3.org/2000/svg">
<path d="M16.2736 11.61C16.5598 11.61 16.7919 11.3779 16.7919 11.0917C16.7919 10.8054 16.5598 10.5734 16.2736 10.5734H14.2004C13.9142 10.5734 13.6821 10.8054 13.6821 11.0917C13.6821 11.3779 13.9142 11.61 14.2004 11.61H16.2736Z" fill="#2B1A2E"/>
<path d="M11.9388 7.14421C11.8139 7.3605 11.8794 7.63207 12.085 7.75078C12.2906 7.86949 12.5585 7.79038 12.6834 7.57409L13.8139 5.61596C14.8129 3.88564 14.2893 1.7131 12.6445 0.763439C10.9996 -0.186219 8.85634 0.446629 7.85734 2.17694L6.72681 4.13508C6.60194 4.35136 6.66738 4.62293 6.87299 4.74164C7.07859 4.86035 7.3465 4.78124 7.47138 4.56495L8.60191 2.60682C9.35115 1.30908 10.9586 0.834449 12.1922 1.54669C13.4259 2.25894 13.8186 3.88835 13.0693 5.18608L11.9388 7.14421Z" fill="#2B1A2E"/>
<path d="M4.98357 8.3332C5.10936 8.11532 5.04499 7.84266 4.83979 7.72419C4.6346 7.60572 4.36628 7.6863 4.24049 7.90418L3.10167 9.87667C2.09534 11.6197 2.61032 13.801 4.2519 14.7487C5.89347 15.6965 8.04002 15.0518 9.04635 13.3088L10.1852 11.3363C10.311 11.1185 10.2466 10.8458 10.0414 10.7273C9.83619 10.6089 9.56787 10.6894 9.44208 10.9073L8.30326 12.8798C7.54852 14.1871 5.93861 14.6706 4.70742 13.9597C3.47624 13.2489 3.09001 11.6129 3.84475 10.3057L4.98357 8.3332Z" fill="#2B1A2E"/>
<path d="M3.83456 0.20752C4.1208 0.20752 4.35285 0.439567 4.35285 0.725812V2.79898C4.35285 3.08523 4.1208 3.31728 3.83456 3.31728C3.54831 3.31728 3.31626 3.08523 3.31626 2.79898L3.31626 0.725812C3.31626 0.439567 3.54831 0.20752 3.83456 0.20752Z" fill="#2B1A2E"/>
<path d="M0.7248 4.35386C0.438555 4.35386 0.206507 4.58591 0.206507 4.87216C0.206507 5.1584 0.438555 5.39045 0.7248 5.39045H2.79797C3.08422 5.39045 3.31626 5.1584 3.31626 4.87216C3.31626 4.58591 3.08422 4.35386 2.79797 4.35386H0.7248Z" fill="#2B1A2E"/>
<path d="M13.1638 15.7563C12.8776 15.7563 12.6455 15.5243 12.6455 15.238V13.1648C12.6455 12.8786 12.8776 12.6465 13.1638 12.6465C13.4501 12.6465 13.6821 12.8786 13.6821 13.1648V15.238C13.6821 15.5243 13.4501 15.7563 13.1638 15.7563Z" fill="#2B1A2E"/>
<path fill-rule="evenodd" clip-rule="evenodd" d="M17 11.0915C17 11.4922 16.6751 11.8171 16.2744 11.8171H14.2012C13.8005 11.8171 13.4756 11.4922 13.4756 11.0915C13.4756 10.6907 13.8005 10.3659 14.2012 10.3659H16.2744C16.6751 10.3659 17 10.6907 17 11.0915ZM11.9821 7.93012C11.6689 7.74928 11.5829 7.34712 11.7601 7.04035L12.8906 5.08222C13.5876 3.87496 13.2154 2.37614 12.0894 1.72603C10.9634 1.07592 9.47927 1.50302 8.78226 2.71028L7.65173 4.66841C7.47462 4.97518 7.08336 5.10182 6.77014 4.92098C6.45691 4.74014 6.37096 4.33798 6.54808 4.03121L7.67861 2.07308C8.72984 0.252288 10.9965 -0.428097 12.7489 0.583695C14.5014 1.59549 15.0455 3.89862 13.9942 5.71941L12.8637 7.67755C12.6866 7.98432 12.2953 8.11096 11.9821 7.93012ZM4.94426 7.54444C5.25861 7.72593 5.34102 8.12991 5.16392 8.43665L4.0251 10.4091C3.32167 11.6275 3.68986 13.1322 4.81189 13.78C5.93393 14.4278 7.42109 13.9943 8.12453 12.776L9.26335 10.8035C9.44045 10.4967 9.83151 10.3661 10.1459 10.5476C10.4602 10.7291 10.5426 11.1331 10.3655 11.4398L9.2267 13.4123C8.16907 15.2442 5.89977 15.9389 4.14905 14.9281C2.39832 13.9173 1.86531 11.6047 2.92294 9.77281L4.06176 7.80032C4.23885 7.49358 4.62992 7.36296 4.94426 7.54444ZM3.83537 0C4.23611 1.54463e-08 4.56098 0.324867 4.56098 0.72561V2.79878C4.56098 3.19952 4.23611 3.52439 3.83537 3.52439C3.43462 3.52439 3.10976 3.19952 3.10976 2.79878L3.10976 0.72561C3.10976 0.324867 3.43462 -1.54463e-08 3.83537 0ZM0 4.87195C1.54463e-08 4.47121 0.324867 4.14634 0.72561 4.14634L2.79878 4.14634C3.19952 4.14634 3.52439 4.47121 3.52439 4.87195C3.52439 5.2727 3.19952 5.59756 2.79878 5.59756H0.72561C0.324867 5.59756 -1.54463e-08 5.2727 0 4.87195ZM13.1646 15.9634C12.7639 15.9634 12.439 15.6386 12.439 15.2378V13.1646C12.439 12.7639 12.7639 12.439 13.1646 12.439C13.5654 12.439 13.8902 12.7639 13.8902 13.1646V15.2378C13.8902 15.6386 13.5654 15.9634 13.1646 15.9634ZM4.35285 0.725812C4.35285 0.439567 4.1208 0.20752 3.83456 0.20752C3.54831 0.20752 3.31626 0.439567 3.31626 0.725812L3.31626 2.79898C3.31626 3.08523 3.54831 3.31728 3.83456 3.31728C4.1208 3.31728 4.35285 3.08523 4.35285 2.79898V0.725812ZM12.085 7.75078C11.8794 7.63207 11.8139 7.3605 11.9388 7.14421L13.0693 5.18608C13.8186 3.88835 13.4259 2.25894 12.1922 1.54669C10.9586 0.834449 9.35115 1.30908 8.60191 2.60682L7.47138 4.56495C7.3465 4.78124 7.07859 4.86035 6.87299 4.74164C6.66738 4.62293 6.60194 4.35136 6.72681 4.13508L7.85734 2.17694C8.85634 0.446629 10.9996 -0.186219 12.6445 0.763439C14.2893 1.7131 14.8129 3.88564 13.8139 5.61596L12.6834 7.57409C12.5585 7.79038 12.2906 7.86949 12.085 7.75078ZM16.7919 11.0917C16.7919 11.3779 16.5598 11.61 16.2736 11.61H14.2004C13.9142 11.61 13.6821 11.3779 13.6821 11.0917C13.6821 10.8054 13.9142 10.5734 14.2004 10.5734H16.2736C16.5598 10.5734 16.7919 10.8054 16.7919 11.0917ZM4.98357 8.3332C5.10936 8.11532 5.04499 7.84266 4.83979 7.72419C4.6346 7.60572 4.36628 7.6863 4.24049 7.90418L3.10167 9.87667C2.09534 11.6197 2.61032 13.801 4.2519 14.7487C5.89347 15.6965 8.04002 15.0518 9.04635 13.3088L10.1852 11.3363C10.311 11.1185 10.2466 10.8458 10.0414 10.7273C9.83619 10.6089 9.56787 10.6894 9.44208 10.9073L8.30326 12.8798C7.54852 14.1871 5.93861 14.6706 4.70742 13.9597C3.47624 13.2489 3.09001 11.6129 3.84475 10.3057L4.98357 8.3332ZM0.7248 4.35386C0.438555 4.35386 0.206507 4.58591 0.206507 4.87216C0.206507 5.1584 0.438555 5.39045 0.7248 5.39045H2.79797C3.08422 5.39045 3.31626 5.1584 3.31626 4.87216C3.31626 4.58591 3.08422 4.35386 2.79797 4.35386H0.7248ZM12.6455 15.238C12.6455 15.5243 12.8776 15.7563 13.1638 15.7563C13.4501 15.7563 13.6821 15.5243 13.6821 15.238V13.1648C13.6821 12.8786 13.4501 12.6465 13.1638 12.6465C12.8776 12.6465 12.6455 12.8786 12.6455 13.1648V15.238Z" fill="#2B1A2E"/>
</svg>
