<svg width="16" height="17" viewBox="0 0 16 17" fill="none" xmlns="http://www.w3.org/2000/svg">
<path d="M8.33113 0.200008C7.36479 0.197986 6.43991 0.579112 5.75914 1.25988C5.07838 1.94064 4.69725 2.86552 4.69928 3.83186L4.73057 12.3152C4.72907 12.6565 4.79515 12.9951 4.92499 13.3116C5.05482 13.6282 5.24585 13.9163 5.48706 14.1595C5.72827 14.4027 6.01487 14.596 6.33035 14.7284C6.64583 14.8609 6.98394 14.9297 7.32518 14.931C7.66642 14.9323 8.00403 14.866 8.31855 14.736C8.63306 14.606 8.91826 14.4148 9.15769 14.1734C9.39712 13.9321 9.58605 13.6453 9.71357 13.3298C9.84109 13.0142 9.90469 12.6761 9.90069 12.3348L9.87137 4.38124C9.8657 3.97815 9.70229 3.59215 9.41619 3.30605C9.1301 3.01996 8.7441 2.85655 8.34101 2.85088C7.93966 2.85887 7.55795 3.02113 7.27511 3.30397C6.99227 3.58682 6.83001 3.96852 6.82201 4.36987L6.84969 11.7934C6.85587 11.9124 6.90757 12.0249 6.9941 12.1074C7.08062 12.19 7.19534 12.2364 7.3145 12.2369C7.43366 12.2375 7.54814 12.1922 7.63423 12.1105C7.72032 12.0287 7.77142 11.9168 7.77697 11.7978L7.75093 4.37334C7.75365 4.21629 7.81696 4.06683 7.92762 3.95616C8.03829 3.8455 8.18776 3.78219 8.3448 3.77947C8.5023 3.78197 8.65304 3.84595 8.76484 3.95774C8.87663 4.06953 8.9406 4.22027 8.9431 4.37778L8.97243 12.3314C8.97402 12.7708 8.80099 13.1915 8.49141 13.501C8.18183 13.8106 7.76105 13.9835 7.32164 13.9818C6.88223 13.9801 6.46019 13.804 6.14835 13.4921C5.83651 13.1802 5.66043 12.7581 5.65883 12.3187L5.62754 3.83532C5.63484 3.12128 5.92296 2.44092 6.42958 1.94138C6.9362 1.44183 7.62059 1.16327 8.33473 1.16593C9.04887 1.16859 9.73535 1.45227 10.2457 1.9556C10.7561 2.45894 11.0493 3.14147 11.0619 3.85558L11.0915 11.8088C11.0941 11.9306 11.1444 12.0467 11.2315 12.1324C11.3186 12.218 11.4357 12.2663 11.5574 12.2667C11.6791 12.2672 11.7958 12.2198 11.8823 12.1348C11.9687 12.0498 12.0181 11.934 12.0198 11.8123L11.9905 3.85937C11.9858 2.89279 11.5978 1.96469 10.9118 1.27868C10.2258 0.592659 9.2977 0.204737 8.33113 0.200008Z" fill="#2B1A2E"/>
<path fill-rule="evenodd" clip-rule="evenodd" d="M4.49928 3.83228C4.49714 2.81297 4.89919 1.83699 5.61772 1.11845C6.33625 0.399923 7.31224 -0.00212427 8.33155 8.4418e-06L8.33113 0.200008C7.36479 0.197986 6.43991 0.579112 5.75914 1.25988C5.07838 1.94064 4.69725 2.86552 4.69928 3.83186L4.73057 12.3152C4.72907 12.6565 4.79515 12.9951 4.92499 13.3116C5.05482 13.6282 5.24585 13.9163 5.48706 14.1595C5.72827 14.4027 6.01487 14.596 6.33035 14.7284C6.64583 14.8609 6.98394 14.9297 7.32518 14.931C7.66642 14.9323 8.00403 14.866 8.31855 14.736C8.63306 14.606 8.91826 14.4148 9.15769 14.1734C9.39712 13.9321 9.58605 13.6453 9.71357 13.3298C9.84109 13.0142 9.90469 12.6761 9.90069 12.3348L9.87137 4.38124C9.8657 3.97815 9.70229 3.59215 9.41619 3.30605C9.1301 3.01996 8.7441 2.85655 8.34101 2.85088C7.93966 2.85887 7.55795 3.02113 7.27511 3.30397C6.99227 3.58682 6.83001 3.96852 6.82201 4.36987L6.84969 11.7934C6.85587 11.9124 6.90757 12.0249 6.9941 12.1074C7.08062 12.19 7.19534 12.2364 7.3145 12.2369C7.43366 12.2375 7.54814 12.1922 7.63423 12.1105C7.72032 12.0287 7.77142 11.9168 7.77697 11.7978L7.75093 4.37334C7.75365 4.21629 7.81696 4.06683 7.92762 3.95616C8.03829 3.8455 8.18776 3.78219 8.3448 3.77947C8.5023 3.78197 8.65304 3.84595 8.76484 3.95774C8.87663 4.06953 8.9406 4.22027 8.9431 4.37778L8.97243 12.3314C8.97402 12.7708 8.80099 13.1915 8.49141 13.501C8.18183 13.8106 7.76105 13.9835 7.32164 13.9818C6.88223 13.9801 6.46019 13.804 6.14835 13.4921C5.83651 13.1802 5.66043 12.7581 5.65883 12.3187L5.62754 3.83532C5.63484 3.12128 5.92296 2.44092 6.42958 1.94138C6.9362 1.44183 7.62059 1.16327 8.33473 1.16593C9.04887 1.16859 9.73535 1.45227 10.2457 1.9556C10.7561 2.45894 11.0493 3.14147 11.0619 3.85558L11.0915 11.8088C11.0941 11.9306 11.1444 12.0467 11.2315 12.1324C11.3186 12.218 11.4357 12.2663 11.5574 12.2667C11.6791 12.2672 11.7958 12.2198 11.8823 12.1348C11.9687 12.0498 12.0181 11.934 12.0198 11.8123L11.9905 3.85937C11.9858 2.89279 11.5978 1.96469 10.9118 1.27868C10.2258 0.592659 9.2977 0.204737 8.33113 0.200008L8.33155 8.4418e-06C9.35104 0.00499627 10.3301 0.414125 11.0532 1.13726C11.7764 1.86039 12.1855 2.83889 12.1905 3.85839L12.2198 11.815C12.2174 11.9892 12.1467 12.1554 12.0224 12.2775C11.8982 12.3995 11.7308 12.4674 11.5566 12.4667C11.3825 12.4661 11.2155 12.3971 11.0913 12.275C10.9671 12.1529 10.8953 11.9871 10.8916 11.8131L10.8915 11.8096L10.8619 3.85776C10.8499 3.19664 10.5782 2.56444 10.1053 2.098C9.632 1.63124 8.9956 1.36839 8.33398 1.36593C7.67243 1.36346 7.03885 1.62148 6.57 2.08379C6.10148 2.54577 5.83467 3.17506 5.82754 3.83599L5.85883 12.318C5.86024 12.7044 6.01511 13.0759 6.28978 13.3507C6.56446 13.6254 6.936 13.7804 7.32241 13.7818C7.70874 13.7833 8.07827 13.6313 8.35 13.3596C8.62173 13.0879 8.77382 12.7184 8.77243 12.3321L8.74311 4.37985C8.74116 4.27489 8.69836 4.17411 8.62341 4.09916C8.54899 4.02474 8.4491 3.98202 8.34494 3.97951C8.24075 3.98216 8.14213 4.0245 8.06905 4.09758C7.99563 4.171 7.95324 4.2702 7.95094 4.37492L7.977 11.8071C7.96906 11.9775 7.8956 12.1381 7.77195 12.2555C7.64829 12.3729 7.48407 12.4378 7.31355 12.4369C7.14308 12.4361 6.97936 12.3698 6.85602 12.2521C6.73269 12.1344 6.65879 11.974 6.64996 11.8037L6.64946 11.7941L6.622 4.36589C6.63102 3.91309 6.81417 3.48207 7.13369 3.16255C7.45321 2.84303 7.88423 2.65994 8.33702 2.65092L8.34382 2.65078C8.79919 2.65719 9.23485 2.84187 9.55761 3.16463C9.88038 3.4874 10.0649 3.92306 10.0713 4.37843L10.0714 4.3805L10.1007 12.3325C10.1049 12.6998 10.0364 13.0648 9.899 13.4047C9.76153 13.7449 9.55785 14.054 9.29968 14.3143C9.04151 14.5745 8.73401 14.7806 8.39496 14.9208C8.05591 15.061 7.69206 15.1324 7.32442 15.131C6.95679 15.1296 6.59264 15.0554 6.25295 14.9129C5.91326 14.7703 5.60472 14.5621 5.34507 14.3003C5.08541 14.0386 4.87975 13.7283 4.73995 13.3875C4.60025 13.047 4.52907 12.6825 4.53057 12.3152L4.49928 3.83228Z" fill="#2B1A2E"/>
</svg>
