<svg width="16" height="16" viewBox="0 0 16 16" fill="none" xmlns="http://www.w3.org/2000/svg">
<path d="M7.99999 4.83336C10.9454 4.83336 13.3331 7.22103 13.3331 10.1664C13.3331 13.1118 10.9454 15.4995 7.99999 15.4995C5.0546 15.4995 2.6669 13.1118 2.6669 10.1664C2.6669 7.22103 5.0546 4.83336 7.99999 4.83336ZM7.99999 7.16657L7.11836 8.95295L5.14695 9.2394L6.57347 10.6299L6.23671 12.5934L7.99999 11.6664L9.76324 12.5934L9.42652 10.6299L10.8531 9.2394L8.88161 8.95295L7.99999 7.16657ZM8.66662 1.49951L11.9998 1.50018V3.50009L11.0909 4.25842C10.3535 3.87187 9.53491 3.61931 8.66736 3.53308L8.66662 1.49951ZM7.33335 1.49951L7.33315 3.53302C6.46566 3.61917 5.64707 3.87164 4.90974 4.25808L4.00017 3.50009V1.50018L7.33335 1.49951Z" fill="black"/>
</svg>
