<svg width="16" height="16" viewBox="0 0 16 16" fill="none" xmlns="http://www.w3.org/2000/svg">
<path fill-rule="evenodd" clip-rule="evenodd" d="M6.59328 1.91093C8.92256 1.37334 11.2758 2.21586 12.7498 3.94181L12.7498 2.50174C12.7498 2.08733 13.0857 1.75174 13.4996 1.75174C13.9135 1.75174 14.2494 2.08733 14.2494 2.50174L14.2494 6.16813C14.2494 6.58254 13.9135 6.91813 13.4996 6.91813L9.83447 6.91813C9.42056 6.91813 9.08468 6.58254 9.08468 6.16813C9.08468 5.75372 9.42056 5.41813 9.83447 5.41813L11.9835 5.41813C10.9199 3.7735 8.9134 2.91486 6.93044 3.37253C4.57739 3.91562 3.00664 6.13907 3.28056 8.53926C3.55448 10.9395 5.58576 12.7515 8.00061 12.7501C8.41452 12.7499 8.75061 13.0853 8.75085 13.4997C8.75109 13.9141 8.4154 14.2499 8.00149 14.2501C4.82383 14.252 2.15106 11.8675 1.79065 8.70939C1.43023 5.55127 3.49697 2.62556 6.59328 1.91093Z" fill="#2B1A2E"/>
</svg>
