<svg width="16" height="16" viewBox="0 0 16 16" fill="none" xmlns="http://www.w3.org/2000/svg">
<path fill-rule="evenodd" clip-rule="evenodd" d="M1 1.99999C1 1.44771 1.39797 1 1.88889 1H14.1111C14.602 1 15 1.44771 15 1.99999V5.33328C15 5.88556 14.602 6.33327 14.1111 6.33327H13.8889V14C13.8889 14.5523 13.4909 15 13 15H3C2.50908 15 2.11111 14.5523 2.11111 14V6.33327H1.88889C1.39797 6.33327 1 5.88556 1 5.33328V1.99999ZM3.88889 6.33327H12.1111V13H3.88889V6.33327ZM2.77778 2.99998V4.33329H13.2222V2.99998H2.77778ZM6.88889 6.99993C6.39797 6.99993 6 7.44764 6 7.99992C6 8.5522 6.39797 8.99991 6.88889 8.99991H9.11111C9.60203 8.99991 10 8.5522 10 7.99992C10 7.44764 9.60203 6.99993 9.11111 6.99993H6.88889Z" fill="#2B1A2E"/>
</svg>
