<svg width="16" height="16" viewBox="0 0 16 16" fill="none" xmlns="http://www.w3.org/2000/svg">
<g clip-path="url(#clip0_1_797)">
<path fill-rule="evenodd" clip-rule="evenodd" d="M2.5 4.25C2.5 4.16282 2.53276 4.09547 2.57279 4.05313C2.61191 4.01176 2.65033 4 2.68182 4H13.3182C13.3497 4 13.3881 4.01176 13.4272 4.05313C13.4672 4.09547 13.5 4.16282 13.5 4.25V6H2.5V4.25ZM2.5 8V11.75C2.5 11.8372 2.53276 11.9045 2.57279 11.9469C2.61191 11.9882 2.65033 12 2.68182 12H13.3182C13.3497 12 13.3881 11.9882 13.4272 11.9469C13.4672 11.9045 13.5 11.8372 13.5 11.75V8H2.5ZM2.68182 2C1.42473 2 0.5 3.06095 0.5 4.25V11.75C0.5 12.9391 1.42473 14 2.68182 14H13.3182C14.5753 14 15.5 12.9391 15.5 11.75V4.25C15.5 3.06095 14.5753 2 13.3182 2H2.68182Z" fill="#2B1A2E"/>
</g>
<defs>
<clipPath id="clip0_1_797">
<rect width="16" height="16" fill="white"/>
</clipPath>
</defs>
</svg>
