<svg width="16" height="16" viewBox="0 0 16 16" fill="none" xmlns="http://www.w3.org/2000/svg">
<mask id="path-1-inside-1_24_65" fill="white">
<path fill-rule="evenodd" clip-rule="evenodd" d="M13 8C13 10.7614 10.7614 13 8 13C5.23858 13 3 10.7614 3 8C3 6.3301 3.81863 6.67986 5.07647 7.21727C5.89865 7.56855 6.90848 8 8 8C9.09152 8 10.1014 7.56855 10.9235 7.21727C12.1814 6.67986 13 6.3301 13 8ZM14 8C14 11.3137 11.3137 14 8 14C4.68629 14 2 11.3137 2 8C2 4.68629 4.68629 2 8 2C9.588 2 11.0319 2.61692 12.1051 3.62416L11.3405 4.27958C12.3593 5.1949 13 6.52262 13 8H14Z"/>
</mask>
<path fill-rule="evenodd" clip-rule="evenodd" d="M13 8C13 10.7614 10.7614 13 8 13C5.23858 13 3 10.7614 3 8C3 6.3301 3.81863 6.67986 5.07647 7.21727C5.89865 7.56855 6.90848 8 8 8C9.09152 8 10.1014 7.56855 10.9235 7.21727C12.1814 6.67986 13 6.3301 13 8ZM14 8C14 11.3137 11.3137 14 8 14C4.68629 14 2 11.3137 2 8C2 4.68629 4.68629 2 8 2C9.588 2 11.0319 2.61692 12.1051 3.62416L11.3405 4.27958C12.3593 5.1949 13 6.52262 13 8H14Z" fill="#2B1A2E"/>
<path d="M5.07647 7.21727L5.46936 6.29769L5.07647 7.21727ZM10.9235 7.21727L11.3164 8.13686V8.13686L10.9235 7.21727ZM14 8H15V7H14V8ZM12.1051 3.62416L12.7559 4.38342L13.6024 3.6579L12.7895 2.89499L12.1051 3.62416ZM11.3405 4.27958L10.6897 3.52032L9.82455 4.26188L10.6722 5.02344L11.3405 4.27958ZM8 14C11.3137 14 14 11.3137 14 8H12C12 10.2091 10.2091 12 8 12V14ZM2 8C2 11.3137 4.68629 14 8 14V12C5.79086 12 4 10.2091 4 8H2ZM5.46936 6.29769C5.16757 6.16875 4.83538 6.0259 4.52992 5.92681C4.24226 5.8335 3.8379 5.72919 3.41864 5.79189C2.90596 5.86856 2.4902 6.17423 2.25236 6.65198C2.05244 7.05356 2 7.53084 2 8H4C4 7.82935 4.01066 7.70956 4.02405 7.62911C4.0377 7.54715 4.05072 7.52731 4.04277 7.54329C4.03207 7.56478 3.99594 7.62487 3.91827 7.68206C3.83946 7.74009 3.76179 7.76281 3.71445 7.76989C3.67477 7.77583 3.66749 7.76935 3.70977 7.77607C3.75093 7.78261 3.81615 7.79787 3.91282 7.82923C4.11462 7.89469 4.35645 7.99709 4.68357 8.13686L5.46936 6.29769ZM8 7C7.14445 7 6.31826 6.66038 5.46936 6.29769L4.68357 8.13686C5.47904 8.47672 6.67251 9 8 9V7ZM10.5306 6.29769C9.68174 6.66038 8.85555 7 8 7V9C9.32749 9 10.521 8.47672 11.3164 8.13686L10.5306 6.29769ZM14 8C14 7.53084 13.9476 7.05356 13.7476 6.65198C13.5098 6.17423 13.094 5.86856 12.5814 5.79189C12.1621 5.72919 11.7577 5.8335 11.4701 5.92681C11.1646 6.0259 10.8324 6.16875 10.5306 6.29769L11.3164 8.13686C11.6436 7.99709 11.8854 7.89469 12.0872 7.82923C12.1838 7.79787 12.2491 7.78261 12.2902 7.77607C12.3325 7.76935 12.3252 7.77583 12.2855 7.76989C12.2382 7.76281 12.1605 7.74009 12.0817 7.68206C12.0041 7.62487 11.9679 7.56478 11.9572 7.54329C11.9493 7.52731 11.9623 7.54715 11.9759 7.62911C11.9893 7.70956 12 7.82935 12 8H14ZM8 15C11.866 15 15 11.866 15 8H13C13 10.7614 10.7614 13 8 13V15ZM1 8C1 11.866 4.13401 15 8 15V13C5.23858 13 3 10.7614 3 8H1ZM8 1C4.13401 1 1 4.13401 1 8H3C3 5.23858 5.23858 3 8 3V1ZM12.7895 2.89499C11.5382 1.72068 9.85218 1 8 1V3C9.32382 3 10.5256 3.51315 11.4208 4.35333L12.7895 2.89499ZM11.9913 5.03883L12.7559 4.38342L11.4544 2.8649L10.6897 3.52032L11.9913 5.03883ZM14 8C14 6.22707 13.2298 4.63269 12.0088 3.53572L10.6722 5.02344C11.4887 5.75712 12 6.81818 12 8H14ZM14 7H13V9H14V7Z" fill="black" mask="url(#path-1-inside-1_24_65)"/>
</svg>
