<svg width="16" height="16" viewBox="0 0 16 16" fill="none" xmlns="http://www.w3.org/2000/svg">
<path fill-rule="evenodd" clip-rule="evenodd" d="M6.85977 2.9533C7.94805 2.70742 9.08666 2.81991 10.1058 3.27401L11.1097 4.82148L7.99908 7.93518L6.81894 6.75504C6.46237 6.39847 5.88426 6.39847 5.5277 6.75504C5.17113 7.11161 5.17113 7.68971 5.5277 8.04628L7.35379 9.87236C7.52507 10.0436 7.7574 10.1398 7.99963 10.1398C8.24187 10.1397 8.47415 10.0434 8.64535 9.87204L12.1259 6.388L13.1739 8.00348C13.1732 9.11901 12.8119 10.2044 12.144 11.0979C11.4759 11.9915 10.5369 12.6452 9.46699 12.9616C8.39706 13.2779 7.25354 13.2399 6.20696 12.8533C5.16039 12.4666 4.26684 11.752 3.65958 10.816C3.05233 9.88007 2.76389 8.77287 2.8373 7.65957C2.91071 6.54628 3.34203 5.48654 4.06694 4.6384C4.79184 3.79027 5.77148 3.19918 6.85977 2.9533ZM12.126 6.38786L13.1739 8.00296L13.1739 7.44348C13.1739 6.93922 13.5827 6.53044 14.087 6.53044C14.5912 6.53044 15 6.93922 15 7.44348V8.00348V8.004C14.9991 9.5135 14.5103 10.9823 13.6065 12.1913C12.7027 13.4003 11.4323 14.2847 9.98475 14.7127C8.5372 15.1407 6.99008 15.0893 5.57413 14.5662C4.15818 14.0431 2.94926 13.0763 2.12767 11.8099C1.30609 10.5436 0.915854 9.04565 1.01517 7.53942C1.11449 6.0332 1.69804 4.59943 2.6788 3.45196C3.65955 2.30448 4.98495 1.50477 6.45733 1.17211C7.92971 0.839443 9.47019 0.991643 10.849 1.60601C11.3096 1.81124 11.5166 2.35101 11.3114 2.81161C11.1062 3.27222 10.5664 3.47924 10.1058 3.27401L11.1097 4.82142L13.4404 2.48841C13.7968 2.13166 14.3749 2.13138 14.7317 2.48776C15.0884 2.84415 15.0887 3.42226 14.7323 3.779L12.126 6.38786Z" fill="#2B1A2E"/>
</svg>
