<svg width="16" height="16" viewBox="0 0 16 16" fill="none" xmlns="http://www.w3.org/2000/svg">
<path fill-rule="evenodd" clip-rule="evenodd" d="M6.7931 1C6.1961 1 5.6372 1.2626 5.23532 1.70658C4.83541 2.14839 4.62069 2.73457 4.62069 3.33333V3.6665H3.17241C1.91487 3.6665 1 4.77295 1 5.99984V12.6665C1 13.8934 1.91487 14.9998 3.17241 14.9998H5.56864C5.57448 14.9999 5.58034 15 5.58621 15C5.59207 15 5.59793 14.9999 5.60377 14.9998H10.3962C10.4021 14.9999 10.4079 15 10.4138 15C10.4197 15 10.4255 14.9999 10.4314 14.9998H12.8276C14.0851 14.9998 15 13.8934 15 12.6665V5.99984C15 4.77295 14.0851 3.6665 12.8276 3.6665H11.3793V3.33333C11.3793 2.73457 11.1646 2.14839 10.7647 1.70658C10.3628 1.2626 9.8039 1 9.2069 1H6.7931ZM9.44827 3.6665V3.33333C9.44827 3.22485 9.40869 3.13276 9.35592 3.07447C9.30513 3.01836 9.25007 3 9.2069 3H6.7931C6.74993 3 6.69487 3.01836 6.64408 3.07447C6.59131 3.13276 6.55172 3.22485 6.55172 3.33333V3.6665H9.44827ZM6.55172 5.6665H9.44827V12.9998H6.55172V5.6665ZM4.62069 5.6665H3.17241C3.09686 5.6665 2.93103 5.75397 2.93103 5.99984V12.6665C2.93103 12.9124 3.09686 12.9998 3.17241 12.9998H4.62069V5.6665ZM11.3793 12.9998V5.6665H12.8276C12.9031 5.6665 13.069 5.75397 13.069 5.99984V12.6665C13.069 12.9124 12.9031 12.9998 12.8276 12.9998H11.3793Z" fill="#2B1A2E"/>
</svg>
