<svg width="16" height="16" viewBox="0 0 16 16" fill="none" xmlns="http://www.w3.org/2000/svg">
<path fill-rule="evenodd" clip-rule="evenodd" d="M8.00017 2.75C5.10058 2.75 2.75 5.10058 2.75 8.00017C2.75 10.8998 5.10058 13.2503 8.00017 13.2503C10.8998 13.2503 13.2503 10.8998 13.2503 8.00017C13.2503 5.10058 10.8998 2.75 8.00017 2.75ZM1.25 8.00017C1.25 4.27215 4.27216 1.25 8.00017 1.25C11.7282 1.25 14.7503 4.27215 14.7503 8.00017C14.7503 11.7282 11.7282 14.7503 8.00017 14.7503C4.27216 14.7503 1.25 11.7282 1.25 8.00017ZM8.00163 4.8501C8.20054 4.8501 8.39131 4.92912 8.53196 5.06977L10.932 7.46984C11.2249 7.76273 11.2249 8.2376 10.932 8.5305C10.6391 8.82339 10.1643 8.82339 9.87137 8.5305L8.75 7.40913V10.4002C8.75 10.8144 8.41421 11.1502 8 11.1502C7.58579 11.1502 7.25 10.8144 7.25 10.4002V7.41239L6.13189 8.5305C5.839 8.82339 5.36413 8.82339 5.07123 8.5305C4.77834 8.2376 4.77834 7.76273 5.07123 7.46984L7.441 5.10007C7.57833 4.94665 7.77789 4.8501 8 4.8501C8.00027 4.8501 8.00055 4.8501 8.00082 4.8501C8.00109 4.8501 8.00136 4.8501 8.00163 4.8501Z" fill="#2B1A2E"/>
</svg>
