<svg width="16" height="16" viewBox="0 0 16 16" fill="none" xmlns="http://www.w3.org/2000/svg">
<path d="M8 5C8.82837 5 9.5 4.32842 9.5 3.5C9.5 2.67158 8.82837 2 8 2C7.17163 2 6.5 2.67158 6.5 3.5C6.5 4.32842 7.17163 5 8 5Z" fill="#2B1A2E"/>
<path d="M9.5 7.98828C9.5 8.8167 8.82837 9.48828 8 9.48828C7.17163 9.48828 6.5 8.8167 6.5 7.98828C6.5 7.15986 7.17163 6.48828 8 6.48828C8.82837 6.48828 9.5 7.15986 9.5 7.98828Z" fill="#2B1A2E"/>
<path d="M9.5 12.5C9.5 13.3284 8.82837 14 8 14C7.17163 14 6.5 13.3284 6.5 12.5C6.5 11.6716 7.17163 11 8 11C8.82837 11 9.5 11.6716 9.5 12.5Z" fill="#2B1A2E"/>
</svg>
