<svg width="16" height="16" viewBox="0 0 16 16" fill="none" xmlns="http://www.w3.org/2000/svg">
<path fill-rule="evenodd" clip-rule="evenodd" d="M7.99981 2.75012C5.10022 2.75012 2.74963 5.1007 2.74963 8.00029C2.74963 10.8999 5.10022 13.2505 7.99981 13.2505C10.8994 13.2505 13.25 10.8999 13.25 8.00029C13.25 5.1007 10.8994 2.75012 7.99981 2.75012ZM1.24963 8.00029C1.24963 4.27228 4.27179 1.25012 7.99981 1.25012C11.7278 1.25012 14.75 4.27228 14.75 8.00029C14.75 11.7283 11.7278 14.7505 7.99981 14.7505C4.27179 14.7505 1.24963 11.7283 1.24963 8.00029ZM8 5.25C8.41421 5.25 8.75 5.58579 8.75 6V7.25H10C10.4142 7.25 10.75 7.58579 10.75 8C10.75 8.41421 10.4142 8.75 10 8.75H8.75V10C8.75 10.4142 8.41421 10.75 8 10.75C7.58579 10.75 7.25 10.4142 7.25 10V8.75H6C5.58579 8.75 5.25 8.41421 5.25 8C5.25 7.58579 5.58579 7.25 6 7.25H7.25V6C7.25 5.58579 7.58579 5.25 8 5.25Z" fill="#2B1A2E"/>
</svg>
