<svg width="16" height="16" viewBox="0 0 16 16" fill="none" xmlns="http://www.w3.org/2000/svg">
<path fill-rule="evenodd" clip-rule="evenodd" d="M9 4C9 3.44772 8.55228 3 8 3C7.44772 3 7 3.44772 7 4V9.82578L5.15081 8.24076C4.73148 7.88134 4.10018 7.9299 3.74076 8.34923C3.38134 8.76855 3.4299 9.39985 3.84923 9.75927L7.34529 12.7559C7.50893 12.8978 7.7191 12.9874 7.94984 12.9988C7.98417 13.0005 8.01857 13.0004 8.05289 12.9986C8.27322 12.9871 8.47468 12.9043 8.63461 12.7729C8.64005 12.7684 8.64545 12.7639 8.65081 12.7593L12.1508 9.75927C12.5701 9.39985 12.6187 8.76855 12.2593 8.34923C11.8999 7.9299 11.2686 7.88134 10.8492 8.24076L9 9.82581V4Z" fill="#2B1A2E"/>
</svg>
